<svg xmlns="http://www.w3.org/2000/svg" viewBox="0 0 100 100"><circle cx="13.162" cy="54.683" r="5.824"/><circle cx="51.116" cy="15.612" r="5.824"/><circle cx="87.954" cy="83.706" r="5.824"/><circle cx="50" cy="50.218" r="5.824"/><path d="M73.94 80.27c-.242 0-.486-.045-.725-.138l-9.353-3.63c-1.03-.398-1.54-1.557-1.14-2.587.397-1.03 1.56-1.542 2.587-1.14l9.352 3.628c1.03.4 1.54 1.558 1.14 2.588-.305.793-1.062 1.28-1.863 1.28zM55.234 73.01c-.24 0-.485-.044-.724-.137l-9.353-3.63c-1.03-.398-1.54-1.557-1.14-2.587.4-1.03 1.56-1.54 2.587-1.14l9.353 3.628c1.03.4 1.54 1.558 1.14 2.588-.305.792-1.062 1.278-1.863 1.278zM36.528 65.75c-.24 0-.485-.043-.723-.136l-9.353-3.63c-1.03-.398-1.54-1.557-1.14-2.587.4-1.03 1.56-1.542 2.587-1.14l9.352 3.628c1.03.4 1.54 1.558 1.14 2.588-.307.793-1.063 1.278-1.864 1.278zM22.843 46.717c-.502 0-1.005-.188-1.394-.565-.793-.77-.812-2.036-.042-2.828l6.197-6.38c.77-.79 2.037-.81 2.828-.04.792.77.81 2.036.04 2.828l-6.196 6.38c-.39.402-.912.605-1.434.605zM35.238 33.958c-.502 0-1.005-.188-1.394-.565-.792-.77-.81-2.036-.04-2.828L40 24.185c.77-.792 2.037-.81 2.828-.04.792.77.81 2.035.04 2.827l-6.196 6.38c-.392.403-.913.606-1.434.606zM80.994 72.837c-.71 0-1.4-.38-1.76-1.048l-4.584-8.472c-.525-.972-.164-2.186.807-2.71.972-.53 2.186-.166 2.71.806l4.584 8.47c.526.973.165 2.187-.806 2.712-.302.164-.63.24-.95.24zM71.828 55.895c-.71 0-1.4-.38-1.76-1.05l-4.583-8.47c-.525-.972-.164-2.185.808-2.71.97-.527 2.185-.165 2.71.807l4.582 8.472c.525.972.164 2.185-.808 2.71-.3.163-.628.24-.95.24zM62.663 38.953c-.71 0-1.4-.38-1.76-1.05l-4.584-8.47c-.526-.972-.165-2.185.806-2.71.972-.527 2.187-.165 2.71.807L64.42 36c.525.972.164 2.185-.807 2.71-.302.165-.63.243-.95.243z"/></svg>