<svg xmlns="http://www.w3.org/2000/svg" viewBox="0 0 100 100"><circle cx="11.528" cy="88.472" r="5.824"/><circle cx="88.472" cy="11.528" r="5.824"/><circle cx="69.236" cy="11.528" r="5.824"/><circle cx="50" cy="11.528" r="5.824"/><circle cx="30.764" cy="11.528" r="5.824"/><circle cx="11.528" cy="11.528" r="5.824"/><circle cx="88.472" cy="88.472" r="5.824"/><circle cx="88.472" cy="69.236" r="5.824"/><circle cx="88.472" cy="50" r="5.824"/><circle cx="88.472" cy="30.764" r="5.824"/><circle cx="69.472" cy="88.472" r="5.824"/><circle cx="69.472" cy="69.236" r="5.824"/><circle cx="69.472" cy="50" r="5.824"/><circle cx="69.472" cy="30.764" r="5.824"/><circle cx="50.472" cy="88.472" r="5.824"/><circle cx="50.472" cy="69.236" r="5.824"/><circle cx="50.472" cy="50" r="5.824"/><circle cx="50.472" cy="30.764" r="5.824"/><circle cx="30.472" cy="88.472" r="5.824"/><circle cx="30.472" cy="69.236" r="5.824"/><circle cx="30.472" cy="50" r="5.824"/><circle cx="30.472" cy="30.764" r="5.824"/><circle cx="11.472" cy="69.236" r="5.824"/><circle cx="11.472" cy="50" r="5.824"/><circle cx="11.472" cy="30.764" r="5.824"/><circle cx="88.472" cy="11.528" r="5.824"/><circle cx="69.236" cy="11.528" r="5.824"/><circle cx="50" cy="11.528" r="5.824"/><circle cx="30.764" cy="11.528" r="5.824"/><circle cx="11.528" cy="11.528" r="5.824"/></svg>