<svg xmlns="http://www.w3.org/2000/svg" viewBox="0 0 100 100"><circle cx="40.274" cy="39.666" r="4.763"/><path d="M12.73 63.898l-5.715 5.6c-.79.773-.802 2.04-.028 2.828.392.4.91.6 1.428.6.505 0 1.01-.19 1.4-.57l5.714-5.6c.788-.773.8-2.04.027-2.828-.773-.79-2.04-.8-2.828-.03zM24.156 52.7l-5.714 5.6c-.79.772-.802 2.04-.028 2.827.392.4.91.6 1.428.6.505 0 1.01-.19 1.4-.57l5.714-5.6c.79-.773.802-2.04.028-2.828-.772-.792-2.04-.802-2.828-.03zM47.017 35.834l.145-.08 2.648-2.595c.79-.774.802-2.04.028-2.83-.773-.788-2.04-.8-2.828-.027l-2.762 2.707c1.148.688 2.105 1.66 2.77 2.824zM54.124 28.13c.505 0 1.01-.19 1.4-.57l5.713-5.6c.79-.772.802-2.04.03-2.828-.774-.79-2.042-.802-2.83-.03l-5.713 5.6c-.79.773-.802 2.04-.03 2.83.393.398.91.6 1.43.6zM65.552 16.932c.505 0 1.01-.19 1.4-.572l5.713-5.6c.79-.773.802-2.04.03-2.828-.773-.788-2.042-.802-2.83-.028l-5.713 5.6c-.79.773-.802 2.04-.03 2.828.393.4.91.6 1.43.6z"/><path d="M92.917 42.97c-12.498-12.5-31.694-15.03-45.755-7.216l-.12.12c.63 1.122.996 2.414.996 3.792 0 .072-.01.142-.01.214 12.617-7.75 30.502-5.642 42.06 5.916.782.78 2.048.78 2.83 0 .78-.78.78-2.046 0-2.827zM47.04 35.873l.122-.12c-.048.028-.097.054-.145.08l.024.04zM42.688 90.66c-6.166-6.166-9.56-14.437-9.56-23.29 0-7.347 2.345-14.29 6.665-19.965-1.252-.077-2.422-.45-3.445-1.053-.172-.1-.342-.206-.505-.32-.944-.66-1.733-1.522-2.307-2.525L29.87 47.1c-.79.773-.802 2.04-.03 2.83.393.398.91.6 1.43.6.505 0 1.01-.19 1.4-.572l1.672-1.638c-3.398 5.67-5.214 12.206-5.214 19.05 0 9.923 3.812 19.198 10.733 26.12.39.39.903.585 1.415.585s1.024-.195 1.414-.586c.78-.783.78-2.05-.002-2.83zM42.097 39.228c.196.062.397.102.6.102.505 0 1.01-.19 1.4-.572l.66-.646c-.082-.235-.182-.458-.297-.674-.81.558-1.598 1.156-2.363 1.79z"/></svg>