<svg xmlns="http://www.w3.org/2000/svg" viewBox="0 0 100 100"><circle cx="88.472" cy="11.528" r="5.824"/><circle cx="50" cy="50" r="5.824"/><circle cx="88.472" cy="88.472" r="5.824"/><circle cx="11.528" cy="88.472" r="5.824"/><circle cx="11.528" cy="11.528" r="5.824"/><path d="M52 88h27v.236c0-1.986.42-3.598 1.438-5.146L55.446 58.17c-1.03.688-2.194 1.188-3.446 1.448V88zM19.606 83.09C20.623 84.64 21 86.25 21 88.237V88h27V59.618c-1.215-.252-2.345-.734-3.35-1.39L19.605 83.09zM16.91 19.606C15.36 20.623 13.75 21 11.763 21H12v27h28.382c.252-1.215.734-2.345 1.39-3.35L16.91 19.605zM12 52v27h-.236c1.986 0 3.598.42 5.145 1.438l24.92-24.993c-.69-1.03-1.19-2.194-1.45-3.446H12zM80.394 16.91C79.377 15.362 79 13.75 79 11.764V12H52v28.382c1.215.252 2.345.734 3.35 1.39L80.395 16.91zM48 12H21v-.236c0 1.986-.42 3.598-1.438 5.145l24.993 24.92c1.03-.69 2.194-1.19 3.446-1.45V12zM88 48V21h.236c-1.986 0-3.598-.42-5.145-1.438L58.17 44.554c.688 1.03 1.188 2.194 1.448 3.446H88zM88 52H59.618c-.252 1.215-.734 2.345-1.39 3.35L83.09 80.395C84.638 79.377 86.25 79 88.236 79H88V52z"/></svg>