<svg xmlns="http://www.w3.org/2000/svg" viewBox="0 0 100 100"><circle cx="13.162" cy="54.683" r="5.824"/><circle cx="51.116" cy="15.612" r="5.824"/><circle cx="87.954" cy="83.706" r="5.824"/><circle cx="50" cy="50.218" r="5.824"/><path d="M40.7 53.36l-17.757 2.15c-.205 2.424-1.287 4.6-2.934 6.203l58.145 22.49c-.008-.165-.025-.33-.025-.498 0-1.768.478-3.42 1.3-4.854L55.876 58.07c-1.64 1.233-3.672 1.972-5.877 1.972-4.317 0-7.985-2.803-9.3-6.683zM59.824 50.218c0 1.767-.476 3.423-1.296 4.858L82.074 75.85c1.454-1.088 3.218-1.785 5.134-1.93l-28.31-52.337c-1.47 1.91-3.625 3.257-6.093 3.69l-.497 15.407c4.306 1.042 7.516 4.917 7.516 9.538zM48.31 40.55l.497-15.39c-3.113-.756-5.65-2.998-6.816-5.93l-25.6 26.185c2.85.996 5.105 3.266 6.076 6.126l17.75-2.15c.377-4.466 3.748-8.082 8.095-8.84z"/></svg>