<svg xmlns="http://www.w3.org/2000/svg" viewBox="0 0 100 100"><path d="M22.977 90.884c-.226 0-.455-.04-.68-.12-1.04-.375-1.577-1.52-1.2-2.56l1.698-4.703c.375-1.038 1.52-1.576 2.56-1.2 1.04.375 1.578 1.52 1.202 2.56l-1.7 4.703c-.294.814-1.062 1.32-1.88 1.32zM65.953 29.276c-.698 0-1.376-.366-1.744-1.018-.543-.962-.203-2.182.76-2.725l9.303-5.25c.963-.54 2.182-.202 2.725.76.542.962.202 2.182-.76 2.725l-9.304 5.25c-.31.175-.648.258-.98.258zM84.56 18.78c-.698 0-1.376-.367-1.744-1.02-.542-.96-.202-2.18.76-2.724l4.354-2.457c.963-.543 2.182-.204 2.725.758.542.962.202 2.182-.76 2.725L85.54 18.52c-.31.175-.647.26-.98.26zM57.687 31.938c-.543-.96-1.763-1.3-2.725-.76l-16.01 9.033c-.416.236-.763.613-.925 1.063L30 63.408v.002l-3.603 10.046c-.375 1.04.176 2.186 1.215 2.56.225.082.46.12.687.12.817 0 1.41-.506 1.705-1.32L32 68.808v-.002l9.385-25.476 15.452-8.667c.962-.542 1.392-1.762.85-2.725z"/></svg>