<svg xmlns="http://www.w3.org/2000/svg" viewBox="0 0 100 100"><circle cx="50.178" cy="49.646" r="7.796"/><path d="M85.342 21.482c-1.104 0-2-.896-2-2v-3h-3c-1.104 0-2-.896-2-2s.896-2 2-2h5c1.104 0 2 .896 2 2v5c0 1.105-.896 2-2 2zM71.724 16.482h-8.618c-1.104 0-2-.896-2-2s.896-2 2-2h8.618c1.104 0 2 .896 2 2s-.896 2-2 2zM54.487 16.482H45.87c-1.104 0-2-.896-2-2s.896-2 2-2h8.618c1.104 0 2 .896 2 2s-.896 2-2 2zM37.252 16.482h-8.618c-1.104 0-2-.896-2-2s.896-2 2-2h8.618c1.104 0 2 .896 2 2s-.896 2-2 2zM15.016 21.482c-1.104 0-2-.896-2-2v-5c0-1.104.896-2 2-2h5c1.104 0 2 .896 2 2s-.896 2-2 2h-3v3c0 1.105-.896 2-2 2zM15.016 73.19c-1.104 0-2-.896-2-2v-8.618c0-1.104.896-2 2-2s2 .896 2 2v8.618c0 1.105-.896 2-2 2zM15.016 55.954c-1.104 0-2-.896-2-2v-8.618c0-1.104.896-2 2-2s2 .896 2 2v8.618c0 1.105-.896 2-2 2zM15.016 38.72c-1.104 0-2-.897-2-2V28.1c0-1.103.896-2 2-2s2 .897 2 2v8.62c0 1.103-.896 2-2 2zM20.016 86.81h-5c-1.104 0-2-.897-2-2v-5c0-1.105.896-2 2-2s2 .895 2 2v3h3c1.104 0 2 .895 2 2s-.896 2-2 2zM71.723 86.81h-8.617c-1.104 0-2-.897-2-2s.896-2 2-2h8.617c1.104 0 2 .895 2 2s-.896 2-2 2zM54.487 86.81H45.87c-1.105 0-2-.897-2-2s.895-2 2-2h8.617c1.104 0 2 .895 2 2s-.895 2-2 2zM37.25 86.81h-8.617c-1.104 0-2-.897-2-2s.896-2 2-2h8.618c1.105 0 2 .895 2 2s-.894 2-2 2zM85.342 86.81h-5c-1.104 0-2-.897-2-2s.896-2 2-2h3v-3c0-1.105.896-2 2-2s2 .895 2 2v5c0 1.103-.896 2-2 2zM85.342 73.19c-1.104 0-2-.896-2-2v-8.618c0-1.104.896-2 2-2s2 .896 2 2v8.618c0 1.105-.896 2-2 2zM85.342 55.954c-1.104 0-2-.896-2-2v-8.618c0-1.104.896-2 2-2s2 .896 2 2v8.618c0 1.105-.896 2-2 2zM85.342 38.72c-1.104 0-2-.897-2-2V28.1c0-1.103.896-2 2-2s2 .897 2 2v8.62c0 1.103-.896 2-2 2z"/></svg>