<svg xmlns="http://www.w3.org/2000/svg" viewBox="0 0 100 100"><path d="M76.107 36.425l3.842-16.958c.227-1-.34-2.01-1.313-2.337L38.462 3.613c-.67-.226-1.41-.08-1.946.382L8.11 28.552c-.503.435-.757 1.09-.68 1.75l4.7 39.608c.112.936.86 1.667 1.798 1.756l14.747 1.395C32.26 87.55 45.39 97.918 60.458 97.918c18.056 0 32.744-14.69 32.744-32.744 0-11.947-6.665-23.05-17.095-28.748zm-15.65 57.492c-12.748 0-23.915-8.453-27.523-20.452l.67.064c.065.005.128.008.192.008 1.02 0 1.89-.776 1.99-1.812.103-1.1-.704-2.075-1.804-2.18l-1.96-.185c-.01-.06-.015-.12-.023-.178-.067-.47-.12-.94-.164-1.41-.078-.866-.122-1.733-.122-2.598 0-15.85 12.895-28.745 28.745-28.745 3.265 0 6.435.534 9.46 1.59.003.002.006.005.01.006.526.183 1.052.385 1.573.6l.005.004-.412 1.818c-.244 1.077.43 2.148 1.508 2.393.15.035.298.05.444.05.913 0 1.738-.63 1.948-1.558l.19-.832c8.585 5.15 14.017 14.568 14.017 24.673 0 15.85-12.895 28.744-28.745 28.744z"/><path d="M56.312 75.667c-.062 0-.126-.003-.19-.01l-5.63-.53c-1.1-.105-1.906-1.08-1.802-2.18.104-1.1 1.067-1.91 2.18-1.804l5.63.532c1.1.104 1.905 1.08 1.802 2.18-.1 1.036-.97 1.812-1.99 1.812zm-11.258-1.065c-.063 0-.126-.003-.19-.01l-5.63-.53c-1.1-.105-1.907-1.08-1.803-2.18s1.073-1.91 2.18-1.804l5.63.532c1.1.104 1.907 1.08 1.803 2.18-.1 1.035-.97 1.812-1.99 1.812zM65.425 76.53c-.063 0-.126-.004-.19-.01l-3.484-.33c-1.1-.103-1.905-1.08-1.802-2.18.104-1.098 1.06-1.904 2.18-1.802l1.733.164.387-1.7c.244-1.075 1.313-1.755 2.393-1.507 1.077.244 1.752 1.315 1.508 2.393l-.773 3.413c-.21.92-1.025 1.56-1.95 1.56zM67.567 67.07c-.146 0-.295-.015-.444-.05-1.077-.243-1.752-1.314-1.508-2.392l1.37-6.045c.243-1.076 1.312-1.756 2.393-1.508 1.077.244 1.752 1.315 1.508 2.393l-1.37 6.045c-.21.928-1.036 1.558-1.95 1.558zm2.74-12.09c-.145 0-.294-.016-.443-.05-1.077-.244-1.752-1.315-1.508-2.393l1.37-6.044c.244-1.078 1.312-1.75 2.393-1.51 1.076.245 1.75 1.316 1.507 2.394l-1.37 6.045c-.21.93-1.036 1.558-1.95 1.558z"/></svg>