<svg xmlns="http://www.w3.org/2000/svg" viewBox="0 0 100 100"><path d="M26.422 99h-.063c-2.206 0-4.385-.496-6.476-1.25-.806-.29-1.595-.693-2.345-1.085-1.225-.64-1.7-2.177-1.062-3.4.638-1.225 2.15-1.714 3.373-1.076.554.287 1.136.536 1.733.75 1.545.56 3.152.838 4.777.838 1.38 0 2.532 1.23 2.532 2.61S27.802 99 26.422 99zm7.66-2.138c-.9 0-1.767-.486-2.215-1.336-.644-1.222-.175-2.733 1.047-3.377 2.003-1.056 3.737-2.592 5.014-4.442.784-1.137 2.34-1.422 3.478-.638 1.136.784 1.422 2.34.638 3.478-1.733 2.512-4.084 4.596-6.8 6.025-.372.196-.77.29-1.163.29zm-21.308-5.185c-.792 0-1.57-.374-2.055-1.073-1.748-2.512-2.877-5.44-3.267-8.47-.176-1.37.79-2.623 2.16-2.8 1.374-.175 2.623.792 2.8 2.16.287 2.236 1.122 4.4 2.412 6.256.788 1.134.508 2.69-.626 3.48-.436.302-.933.447-1.426.447zm30.415-7.315c-.283 0-.57-.05-.85-.15-1.3-.47-1.972-1.9-1.502-3.2l2.708-7.495c.47-1.298 1.902-1.967 3.2-1.502 1.3.47 1.972 1.902 1.502 3.2l-2.708 7.496c-.368 1.02-1.328 1.652-2.35 1.652zm-32.362-7.888c-.282 0-.57-.05-.85-.15-1.298-.47-1.97-1.9-1.5-3.2l2.707-7.495c.47-1.3 1.902-1.968 3.2-1.503 1.3.47 1.972 1.902 1.502 3.2l-2.708 7.496c-.37 1.017-1.33 1.65-2.352 1.65zm37.777-7.102c-.282 0-.57-.05-.85-.15-1.298-.47-1.97-1.9-1.5-3.2l2.707-7.495c.47-1.298 1.904-1.967 3.2-1.502 1.3.47 1.972 1.902 1.503 3.2l-2.71 7.496c-.367 1.018-1.327 1.652-2.35 1.652zm-32.36-7.89c-.283 0-.57-.048-.85-.148-1.3-.47-1.972-1.902-1.502-3.2l2.708-7.496c.47-1.3 1.903-1.97 3.202-1.5 1.298.468 1.97 1.9 1.5 3.2l-2.707 7.495c-.367 1.017-1.328 1.65-2.35 1.65zm38.454-6.528c-.877 0-1.727-.46-2.185-1.28-.674-1.204-.244-2.728.96-3.402l6.956-3.89c1.208-.674 2.73-.243 3.403.962.674 1.205.244 2.728-.96 3.402l-6.956 3.89c-.386.216-.805.318-1.218.318zm13.91-7.78c-.877 0-1.727-.46-2.185-1.28-.674-1.205-.244-2.73.96-3.402l6.956-3.89c1.208-.676 2.73-.245 3.403.96s.244 2.73-.96 3.402l-6.956 3.89c-.386.218-.805.32-1.218.32zm-46.95-.68c-.28 0-.568-.05-.85-.15-1.297-.47-1.97-1.902-1.5-3.2l2.708-7.496c.47-1.3 1.903-1.972 3.2-1.5 1.3.468 1.972 1.9 1.502 3.2l-2.708 7.495c-.368 1.017-1.328 1.65-2.35 1.65zm60.86-7.1c-.875 0-1.725-.46-2.183-1.28-.674-1.205-.244-2.73.96-3.402l3.438-1.922c1.002-.56 1.93-1.238 2.76-2.014 1.006-.946 2.59-.893 3.532.115.944 1.01.893 2.59-.115 3.535-1.124 1.053-2.38 1.972-3.736 2.73l-3.436 1.92c-.387.216-.806.32-1.22.32zm-53.978-7.097c-.65 0-1.298-.25-1.788-.752-.965-.987-.947-2.57.04-3.536 1.2-1.175 2.554-2.187 4.02-3.006l3.14-1.755c1.202-.676 2.727-.245 3.4.96s.245 2.728-.96 3.402l-3.138 1.755c-1.082.605-2.08 1.35-2.965 2.217-.486.476-1.117.713-1.748.713zm64.96-3.812c-.272 0-.55-.045-.823-.14-1.304-.455-1.992-1.88-1.537-3.184.524-1.503.79-3.07.79-4.655 0-.673-.048-1.35-.145-2.015-.2-1.366.747-2.635 2.113-2.834 1.365-.193 2.637.748 2.835 2.114.132.902.198 1.822.198 2.736 0 2.148-.36 4.27-1.07 6.304-.36 1.03-1.327 1.675-2.36 1.675zm-51.37-4.444c-.877 0-1.727-.46-2.186-1.28-.674-1.204-.243-2.727.962-3.4l6.955-3.89c1.204-.674 2.728-.244 3.402.96s.244 2.73-.96 3.403l-6.956 3.89c-.387.215-.806.318-1.22.318zm13.91-7.78c-.877 0-1.727-.46-2.185-1.28-.674-1.205-.244-2.728.96-3.402l6.956-3.89c1.208-.674 2.73-.243 3.402.962s.244 2.728-.96 3.402l-6.956 3.89c-.387.216-.806.318-1.22.318zm35.25-2.944c-.774 0-1.54-.36-2.028-1.037-1.32-1.83-3.084-3.328-5.104-4.334-1.235-.616-1.737-2.118-1.12-3.353.615-1.237 2.117-1.738 3.353-1.122 2.74 1.368 5.135 3.402 6.926 5.883.807 1.12.555 2.682-.565 3.49-.443.32-.955.473-1.462.473zM69.953 8.48c-.886 0-1.743-.47-2.197-1.304-.66-1.212-.214-2.73.998-3.392 2.694-1.47 5.73-2.272 8.784-2.324 1.41-.03 2.52 1.077 2.542 2.458.02 1.38-1.078 2.52-2.46 2.542-2.28.04-4.457.615-6.473 1.714-.38.208-.79.306-1.195.306z"/><path d="M26.36 82.213c-.283 0-.57-.05-.85-.15-1.3-.47-1.972-1.9-1.502-3.2L38.083 39.91l38.57-21.572c1.205-.674 2.727-.244 3.4.962.675 1.205.245 2.728-.96 3.402l-36.94 20.662L28.71 80.562c-.367 1.017-1.327 1.65-2.35 1.65z"/></svg>