<svg xmlns="http://www.w3.org/2000/svg" viewBox="0 0 100 100"><circle cx="52.178" cy="51.646" r="7.796"/><path d="M56.257 97.633c-.09 0-.183-.006-.274-.02-3.41-.467-6.71-1.465-9.804-2.967-.995-.48-1.41-1.68-.927-2.672.482-.994 1.68-1.41 2.672-.926 2.714 1.316 5.607 2.192 8.6 2.603 1.096.15 1.86 1.16 1.71 2.254-.137 1.002-.995 1.73-1.978 1.73zM65.863 97.443c-.952 0-1.795-.68-1.967-1.65-.193-1.088.53-2.126 1.62-2.318 2.97-.527 5.826-1.518 8.49-2.943.975-.52 2.185-.154 2.706.818.52.974.155 2.187-.818 2.707-3.036 1.626-6.293 2.755-9.68 3.355-.117.022-.235.03-.35.03zM39.165 89.348c-.498 0-.997-.186-1.385-.558-2.484-2.385-4.566-5.13-6.19-8.156-.522-.974-.157-2.186.817-2.708.974-.52 2.186-.155 2.708.817 1.426 2.657 3.255 5.067 5.436 7.162.798.765.823 2.03.058 2.828-.393.41-.917.615-1.443.615zM82.615 88.486c-.5 0-1-.186-1.387-.56-.796-.766-.82-2.03-.055-2.827 2.1-2.182 3.83-4.66 5.148-7.37.485-.993 1.68-1.406 2.675-.924.993.483 1.406 1.68.924 2.674-1.503 3.086-3.476 5.91-5.864 8.393-.392.408-.916.613-1.44.613zM30.193 72.605c-.95 0-1.793-.68-1.966-1.648-.34-1.906-.513-3.853-.513-5.784 0-1.487.1-2.985.3-4.45.15-1.094 1.16-1.86 2.25-1.712 1.096.15 1.862 1.157 1.713 2.252-.175 1.287-.264 2.604-.264 3.91 0 1.697.152 3.407.45 5.082.195 1.087-.53 2.126-1.616 2.32-.12.022-.237.03-.354.03zM90.917 71.407c-.09 0-.183-.006-.275-.02-1.095-.15-1.86-1.16-1.71-2.253.18-1.306.272-2.64.27-3.96 0-1.69-.146-3.383-.437-5.034-.19-1.088.535-2.125 1.623-2.316 1.095-.193 2.125.536 2.316 1.623.33 1.88.5 3.806.5 5.726 0 1.504-.104 3.02-.308 4.507-.138 1.002-.996 1.727-1.98 1.727zM32.77 53.788c-.29 0-.588-.063-.87-.2-.993-.48-1.41-1.677-.928-2.67 1.496-3.09 3.463-5.918 5.85-8.405.763-.797 2.03-.824 2.827-.06.796.766.823 2.032.058 2.83-2.094 2.183-3.822 4.666-5.135 7.377-.346.713-1.06 1.128-1.802 1.128zM87.595 52.706c-.715 0-1.406-.384-1.766-1.06-1.423-2.66-3.247-5.072-5.425-7.17-.796-.766-.82-2.032-.053-2.828s2.034-.818 2.828-.052c2.48 2.39 4.558 5.137 6.176 8.167.52.974.153 2.186-.82 2.707-.3.16-.624.236-.94.236zM45.92 40.077c-.713 0-1.402-.382-1.763-1.053-.523-.973-.16-2.186.814-2.71 3.033-1.63 6.287-2.764 9.675-3.37 1.08-.198 2.126.528 2.32 1.615.195 1.086-.527 2.125-1.615 2.32-2.97.534-5.825 1.53-8.484 2.96-.302.16-.627.237-.946.237zM73.042 39.323l-.118-.058c-2.693-1.3-5.59-2.172-8.58-2.577-1.096-.148-1.863-1.155-1.716-2.25.148-1.096 1.163-1.858 2.25-1.714 3.412.46 6.713 1.454 9.81 2.95l-.773 1.85-.873 1.8zM34.043 10.78c-.56 0-1.12-.235-1.514-.693-.723-.836-.63-2.1.204-2.82l3.783-3.27c.536-.463 1.276-.61 1.946-.383l4.74 1.594c1.046.352 1.61 1.486 1.257 2.533-.352 1.047-1.486 1.612-2.533 1.26L38.27 7.77l-2.92 2.522c-.378.327-.844.487-1.307.487zM20.148 22.79c-.56 0-1.12-.234-1.514-.692-.722-.836-.63-2.1.205-2.82l6.946-6.007c.836-.722 2.098-.63 2.82.206.723.836.63 2.1-.204 2.82l-6.947 6.007c-.378.327-.844.487-1.307.487zM10.003 37.03c-1 0-1.863-.747-1.983-1.764L7.43 30.3c-.078-.658.177-1.313.68-1.748l3.78-3.27c.837-.723 2.1-.63 2.822.205.722.836.63 2.1-.205 2.82l-2.98 2.576.465 3.91c.13 1.098-.654 2.092-1.75 2.223-.08.01-.16.015-.24.015zM12.352 56.816c-1 0-1.863-.747-1.983-1.765l-1.176-9.89c-.13-1.097.653-2.092 1.75-2.222 1.098-.133 2.092.654 2.222 1.75l1.174 9.893c.13 1.098-.653 2.092-1.75 2.223-.08.01-.16.013-.238.013zM19.098 72.146c-.063 0-.126-.003-.19-.01l-4.98-.47c-.937-.09-1.686-.82-1.796-1.756l-.59-4.965c-.13-1.097.654-2.092 1.75-2.222 1.094-.117 2.092.653 2.222 1.75l.4 3.362 3.37.318c1.1.104 1.907 1.08 1.803 2.18-.1 1.036-.97 1.813-1.99 1.813zM52.177 75.275c-.062 0-.126-.003-.19-.01l-8.27-.78c-1.1-.105-1.907-1.08-1.803-2.18s1.07-1.906 2.18-1.804l8.27.783c1.1.104 1.906 1.08 1.803 2.18-.1 1.036-.97 1.812-1.99 1.812z"/><path d="M35.638 73.71c-.063 0-.127-.002-.19-.008l-8.27-.782c-1.1-.104-1.908-1.08-1.804-2.18.104-1.1 1.07-1.9 2.18-1.803l8.27.782c1.1.103 1.907 1.08 1.803 2.18-.1 1.035-.97 1.81-1.99 1.81zM65.425 76.53c-.063 0-.127-.004-.19-.01l-4.98-.47c-1.1-.105-1.905-1.08-1.802-2.18.104-1.1 1.055-1.908 2.18-1.804l3.228.306.718-3.16c.244-1.078 1.317-1.757 2.392-1.51 1.078.243 1.753 1.314 1.51 2.392l-1.105 4.876c-.21.92-1.025 1.56-1.95 1.56zM68.603 62.503c-.146 0-.295-.016-.444-.05-1.078-.244-1.753-1.314-1.51-2.393l2.074-9.15c.244-1.077 1.314-1.75 2.393-1.51 1.077.245 1.752 1.316 1.508 2.394l-2.073 9.15c-.21.93-1.036 1.56-1.95 1.56zM72.75 44.203c-.147 0-.296-.016-.445-.05-1.077-.244-1.752-1.315-1.508-2.393l2.073-9.15c.244-1.077 1.317-1.752 2.392-1.51 1.078.245 1.753 1.316 1.51 2.394l-2.074 9.15c-.21.93-1.036 1.56-1.95 1.56zM76.896 25.902c-.146 0-.295-.016-.444-.05-1.077-.244-1.752-1.315-1.508-2.393l.706-3.115-3.027-1.02c-1.047-.35-1.61-1.485-1.258-2.532.353-1.046 1.483-1.61 2.533-1.258l4.74 1.594c.972.326 1.54 1.336 1.31 2.337l-1.104 4.876c-.21.93-1.035 1.56-1.948 1.56zM63.027 15.99c-.21 0-.426-.035-.638-.106l-10.233-3.442c-1.047-.352-1.61-1.486-1.258-2.533.352-1.047 1.482-1.612 2.532-1.26l10.232 3.443c1.047.352 1.61 1.486 1.258 2.533-.28.835-1.06 1.363-1.895 1.363z"/></svg>