<svg xmlns="http://www.w3.org/2000/svg" viewBox="0 0 100 100"><path d="M37.043 74.903c-1.104 0-2-.896-2-2v-9.16c0-1.105.896-2 2-2s2 .895 2 2v9.16c0 1.105-.896 2-2 2zM37.043 56.58c-1.104 0-2-.895-2-2v-9.16c0-1.105.896-2 2-2s2 .895 2 2v9.16c0 1.106-.896 2-2 2zM37.043 38.258c-1.104 0-2-.896-2-2v-9.16c0-1.105.896-2 2-2s2 .895 2 2v9.16c0 1.105-.896 2-2 2zM62.957 74.903c-1.104 0-2-.896-2-2v-9.16c0-1.105.896-2 2-2s2 .895 2 2v9.16c0 1.105-.896 2-2 2zM62.957 56.58c-1.104 0-2-.896-2-2v-9.16c0-1.105.896-2 2-2s2 .895 2 2v9.16c0 1.105-.896 2-2 2zM62.957 38.258c-1.104 0-2-.896-2-2v-9.16c0-1.105.896-2 2-2s2 .895 2 2v9.16c0 1.104-.896 2-2 2z"/><path d="M63 19.936c-1.104 0-2-.896-2-2V15H39v2.936c0 1.104-.896 2-2 2s-2-.896-2-2V15H15v70h20v-2.936c0-1.104.896-2 2-2s2 .896 2 2V85h22v-2.936c0-1.104.896-2 2-2s2 .896 2 2V85h20V15H65v2.936c0 1.104-.896 2-2 2z" fill="none"/><path d="M87.064 11H12.936C11.83 11 11 11.83 11 12.936v74.13c0 1.103.83 1.934 1.936 1.934h74.13C88.168 89 89 88.17 89 87.064V12.936C89 11.83 88.17 11 87.064 11zM85 85H65v-2.936c0-1.104-.896-2-2-2s-2 .896-2 2V85H39v-2.936c0-1.104-.896-2-2-2s-2 .896-2 2V85H15V15h20v2.936c0 1.104.896 2 2 2s2-.896 2-2V15h22v2.936c0 1.104.896 2 2 2s2-.896 2-2V15h20v70z"/></svg>