<svg xmlns="http://www.w3.org/2000/svg" viewBox="0 0 100 100"><path d="M76.107 36.425l3.842-16.958c.227-1-.34-2.01-1.313-2.337L38.462 3.613c-.67-.226-1.41-.08-1.946.382L8.11 28.552c-.503.435-.757 1.09-.68 1.75l4.7 39.608c.112.936.86 1.667 1.798 1.756l14.747 1.395C32.26 87.55 45.39 97.918 60.458 97.918c18.056 0 32.744-14.69 32.744-32.744 0-11.947-6.665-23.05-17.095-28.748zm-60.194 31.41l-4.385-36.95 26.74-23.116 37.38 12.576-3.246 14.33c-.246-.097-.496-.182-.743-.272-.172-.062-.34-.128-.513-.187-.51-.177-1.023-.342-1.54-.492l-.074-.023c-.544-.157-1.093-.297-1.644-.425-.168-.04-.336-.07-.503-.107-.387-.083-.776-.162-1.166-.23-.2-.037-.403-.07-.606-.1-.366-.058-.733-.11-1.102-.155-.206-.025-.41-.05-.618-.072-.39-.04-.78-.07-1.173-.098-.18-.012-.36-.028-.54-.037-.572-.03-1.145-.047-1.722-.047-18.056 0-32.745 14.69-32.745 32.746 0 .59.02 1.182.052 1.774.01.188.028.375.042.562.03.406.062.81.106 1.216.01.083.012.166.022.25l-12.022-1.142zm44.545 26.082c-12.75 0-23.92-8.453-27.528-20.453l32.304 3.056c.063.006.127.01.19.01.034 0 .067-.008.102-.01.047-.003.092-.006.138-.012.078-.01.155-.024.23-.043l.097-.025c.09-.026.173-.06.256-.096.02-.01.04-.017.06-.026.09-.045.175-.096.257-.154l.036-.024c.082-.06.16-.13.233-.202l.03-.03c.07-.072.132-.15.19-.233.012-.015.024-.028.034-.043.053-.08.1-.167.14-.256.01-.02.022-.04.03-.06.048-.11.087-.224.114-.345l7.815-34.485c8.59 5.15 14.015 14.58 14.015 24.687.002 15.85-12.892 28.745-28.742 28.745z"/></svg>