<svg xmlns="http://www.w3.org/2000/svg" viewBox="0 0 100 100"><circle cx="13.162" cy="54.683" r="5.824"/><circle cx="51.116" cy="15.612" r="5.824"/><circle cx="87.954" cy="83.706" r="5.824"/><circle cx="50" cy="50.218" r="5.824"/><path d="M73.94 80.27c-.242 0-.486-.045-.725-.138l-9.353-3.63c-1.03-.398-1.54-1.557-1.14-2.587.397-1.03 1.56-1.542 2.587-1.14l9.352 3.628c1.03.4 1.54 1.558 1.14 2.588-.305.793-1.062 1.28-1.863 1.28zM55.234 73.01c-.24 0-.485-.044-.724-.137l-9.353-3.63c-1.03-.398-1.54-1.557-1.14-2.587.4-1.03 1.56-1.54 2.587-1.14l9.353 3.628c1.03.4 1.54 1.558 1.14 2.588-.305.792-1.062 1.278-1.863 1.278zM36.528 65.75c-.24 0-.485-.043-.723-.136l-9.353-3.63c-1.03-.398-1.54-1.557-1.14-2.587.4-1.03 1.56-1.542 2.587-1.14l9.352 3.628c1.03.4 1.54 1.558 1.14 2.588-.307.793-1.063 1.278-1.864 1.278zM22.843 46.717c-.502 0-1.005-.188-1.394-.565-.793-.77-.812-2.036-.042-2.828l6.197-6.38c.77-.79 2.037-.81 2.828-.04.792.77.81 2.036.04 2.828l-6.196 6.38c-.39.402-.912.605-1.434.605zM35.238 33.958c-.502 0-1.005-.188-1.394-.565-.792-.77-.81-2.036-.04-2.828L40 24.185c.77-.792 2.037-.81 2.828-.04.792.77.81 2.035.04 2.827l-6.196 6.38c-.392.403-.913.606-1.434.606zM50.427 39.017h-.065c-1.104-.037-1.97-.96-1.935-2.064l.265-8.204c.036-1.105.93-1.972 2.063-1.936 1.104.036 1.97.96 1.935 2.063l-.265 8.204c-.035 1.083-.923 1.937-1.998 1.937zM78.113 77.023c-.47 0-.94-.165-1.322-.5L70.7 71.15c-.83-.73-.908-1.996-.178-2.824.73-.828 1.993-.906 2.823-.177l6.092 5.373c.828.73.907 1.995.177 2.823-.395.45-.947.677-1.5.677zM65.93 66.274c-.47 0-.94-.165-1.32-.5L58.517 60.4c-.828-.73-.907-1.995-.177-2.823.732-.828 1.997-.907 2.824-.177l6.09 5.374c.83.73.908 1.995.178 2.823-.396.45-.948.677-1.5.677z"/></svg>