<svg xmlns="http://www.w3.org/2000/svg" viewBox="0 0 100 100"><path d="M12.71 16.536c-.528 0-1.056-.208-1.45-.622L7.9 12.378c-.55-.58-.703-1.432-.387-2.167S8.55 9 9.35 9H14c1.104 0 2 .896 2 2 0 1.1-.89 1.994-1.99 2l.15.158c.762.8.73 2.067-.07 2.828-.388.367-.884.55-1.38.55zM39.75 43.398c-.513 0-1.025-.195-1.415-.586l-6.715-6.716c-.78-.78-.78-2.047 0-2.828.78-.78 2.048-.78 2.828 0l6.715 6.716c.78.78.78 2.047 0 2.828-.39.39-.903.586-1.414.586zM26.317 29.967c-.512 0-1.024-.195-1.414-.586l-6.715-6.715c-.78-.78-.78-2.047 0-2.828.78-.78 2.048-.78 2.828 0l6.715 6.716c.782.78.782 2.047 0 2.828-.39.39-.9.587-1.413.587zM60.25 43.398c-.51 0-1.022-.195-1.413-.586-.78-.78-.78-2.047 0-2.828l6.716-6.715c.78-.782 2.047-.782 2.828 0 .782.78.782 2.046 0 2.827l-6.715 6.715c-.39.39-.902.586-1.414.586zM73.683 29.967c-.512 0-1.023-.195-1.414-.586-.782-.78-.782-2.046 0-2.827l6.715-6.715c.78-.78 2.047-.78 2.828 0 .78.78.78 2.047 0 2.828l-6.716 6.715c-.39.39-.903.587-1.414.587zM87.29 16.536c-.496 0-.992-.183-1.38-.55-.8-.76-.832-2.027-.07-2.828l.15-.158c-1.1-.006-1.99-.9-1.99-2 0-1.104.896-2 2-2h4.65c.8 0 1.52.477 1.837 1.21s.163 1.588-.39 2.168l-3.36 3.536c-.39.413-.92.622-1.448.622zM75 13H65c-1.104 0-2-.896-2-2s.896-2 2-2h10c1.104 0 2 .896 2 2s-.896 2-2 2zM55 13H45c-1.104 0-2-.896-2-2s.896-2 2-2h10c1.104 0 2 .896 2 2s-.896 2-2 2zM35 13H25c-1.104 0-2-.896-2-2s.896-2 2-2h10c1.104 0 2 .896 2 2s-.896 2-2 2zM14 94H9.35c-.8 0-1.522-.478-1.837-1.213-.315-.735-.16-1.588.39-2.168l3.367-3.53c.762-.798 2.028-.828 2.828-.066.8.763.83 2.028.067 2.828l-.143.148c1.095.012 1.978.903 1.978 2 0 1.104-.896 2-2 2zM19.606 83.782c-.513 0-1.026-.196-1.417-.588-.78-.783-.778-2.05.004-2.83l6.713-6.687c.782-.778 2.048-.775 2.83.005.778.783.776 2.05-.006 2.83l-6.712 6.687c-.39.388-.9.582-1.412.582zM33.032 70.405c-.513 0-1.026-.196-1.417-.588-.78-.783-.777-2.05.005-2.83l6.713-6.687c.782-.78 2.048-.776 2.83.005.778.783.776 2.05-.006 2.83l-6.713 6.687c-.39.39-.9.583-1.412.583zM80.395 83.782c-.51 0-1.02-.194-1.41-.583l-6.715-6.69c-.783-.778-.785-2.045-.006-2.827.78-.784 2.047-.785 2.828-.006l6.714 6.688c.783.78.785 2.046.006 2.828-.39.393-.905.59-1.417.59zM66.968 70.406c-.51 0-1.02-.194-1.412-.583l-6.713-6.688c-.782-.78-.784-2.046-.005-2.83.78-.78 2.046-.783 2.83-.004l6.712 6.69c.782.78.784 2.045.005 2.828-.39.392-.905.588-1.417.588zM90.65 94H86c-1.104 0-2-.896-2-2 0-1.097.883-1.987 1.978-2l-.143-.148c-.763-.8-.732-2.065.066-2.828.8-.76 2.065-.732 2.83.066l3.366 3.53c.553.578.706 1.43.392 2.167-.315.735-1.038 1.213-1.84 1.213zM75 94H65c-1.104 0-2-.896-2-2s.896-2 2-2h10c1.104 0 2 .896 2 2s-.896 2-2 2zM55 94H45c-1.104 0-2-.896-2-2s.896-2 2-2h10c1.104 0 2 .896 2 2s-.896 2-2 2zM35 94H25c-1.104 0-2-.896-2-2s.896-2 2-2h10c1.104 0 2 .896 2 2s-.896 2-2 2z"/><circle cx="50.178" cy="51.646" r="7.796"/></svg>