<svg xmlns="http://www.w3.org/2000/svg" viewBox="0 0 100 100"><circle cx="13.162" cy="54.683" r="5.824"/><circle cx="51.116" cy="15.612" r="5.824"/><circle cx="87.954" cy="83.706" r="5.824"/><circle cx="50" cy="50.218" r="5.824"/><path d="M36.674 82h-9.256c-1.104 0-2 .896-2 2s.896 2 2 2h9.256c1.104 0 2-.896 2-2s-.895-2-2-2zM55.187 82H45.93c-1.104 0-2 .896-2 2s.896 2 2 2h9.256c1.104 0 2-.896 2-2s-.895-2-2-2zM73.698 82h-9.256c-1.104 0-2 .896-2 2s.896 2 2 2h9.256c1.104 0 2-.896 2-2s-.895-2-2-2zM18.162 82H15v-3.294c0-1.104-.896-2-2-2s-2 .896-2 2v5C11 84.81 12.058 86 13.162 86h5c1.104 0 2-.896 2-2s-.895-2-2-2zM11 64.3v2.787c0 1.104.896 2 2 2s2-.896 2-2V64.3c0 .135-1.315.207-2 .207s-1-.072-2-.206zM14.708 45.005c.233-.327.292-.724.292-1.156V32.23c0-1.104-.896-2-2-2s-2 .896-2 2v11.62c0 .43.22.828.454 1.155.53-.09 1.072-.146 1.627-.146s1.098.056 1.628.145zM13 22.612c1.104 0 2-.896 2-2V18h3.162c1.104 0 2-.896 2-2s-.896-2-2-2h-5C12.058 14 11 14.507 11 15.612v5c0 1.104.896 2 2 2zM27.418 18h9.256c1.104 0 2-.896 2-2s-.896-2-2-2h-9.256c-1.104 0-2 .896-2 2s.895 2 2 2zM73.698 14h-9.256c-1.104 0-2 .896-2 2s.896 2 2 2h9.256c1.104 0 2-.896 2-2s-.895-2-2-2zM82.954 18H86v2.612c0 1.104.896 2 2 2s2-.896 2-2v-5C90 14.507 89.06 14 87.954 14h-5c-1.104 0-2 .896-2 2s.896 2 2 2zM90 32.23c0-1.103-.896-2-2-2s-2 .897-2 2v11.62c0 1.104.896 2 2 2s2-.896 2-2V32.23zM88 53.47c-1.104 0-2 .895-2 2v11.617c0 1.104.896 2 2 2s2-.896 2-2V55.47c0-1.106-.896-2-2-2z"/></svg>