<svg xmlns="http://www.w3.org/2000/svg" viewBox="0 0 100 100"><path d="M76.647 30.353c-1.104 0-2-.896-2-2v-3h-3c-1.104 0-2-.896-2-2s.896-2 2-2h5c1.104 0 2 .896 2 2v5c0 1.104-.895 2-2 2zM62.988 25.353h-8.66c-1.103 0-2-.896-2-2s.897-2 2-2h8.66c1.104 0 2 .896 2 2s-.895 2-2 2zM45.67 25.353h-8.66c-1.103 0-2-.896-2-2s.897-2 2-2h8.66c1.104 0 2 .896 2 2s-.895 2-2 2zM23.353 30.353c-1.104 0-2-.896-2-2v-5c0-1.104.896-2 2-2h5c1.104 0 2 .896 2 2s-.896 2-2 2h-3v3c0 1.104-.896 2-2 2zM23.353 64.988c-1.104 0-2-.896-2-2v-8.66c0-1.103.896-2 2-2s2 .897 2 2v8.66c0 1.105-.896 2-2 2zM23.353 47.67c-1.104 0-2-.896-2-2v-8.66c0-1.103.896-2 2-2s2 .897 2 2v8.66c0 1.105-.896 2-2 2zM28.353 78.647h-5c-1.104 0-2-.896-2-2v-5c0-1.104.896-2 2-2s2 .896 2 2v3h3c1.104 0 2 .896 2 2s-.896 2-2 2zM62.988 78.647h-8.66c-1.103 0-2-.896-2-2s.897-2 2-2h8.66c1.104 0 2 .896 2 2s-.895 2-2 2zM45.67 78.647h-8.66c-1.103 0-2-.896-2-2s.897-2 2-2h8.66c1.104 0 2 .896 2 2s-.895 2-2 2zM76.647 78.647h-5c-1.104 0-2-.896-2-2s.896-2 2-2h3v-3c0-1.104.896-2 2-2s2 .896 2 2v5c0 1.105-.895 2-2 2zM76.647 64.988c-1.104 0-2-.896-2-2v-8.66c0-1.103.896-2 2-2s2 .897 2 2v8.66c0 1.105-.895 2-2 2zM76.647 47.67c-1.104 0-2-.896-2-2v-8.66c0-1.103.896-2 2-2s2 .897 2 2v8.66c0 1.105-.895 2-2 2z"/><path d="M90.216 92.216H9.784c-1.104 0-2-.896-2-2V9.784c0-1.104.896-2 2-2h80.432c1.104 0 2 .896 2 2v80.432c0 1.104-.896 2-2 2zm-78.432-4h76.432V11.784H11.784v76.432z"/></svg>