<svg xmlns="http://www.w3.org/2000/svg" viewBox="0 0 100 100"><path d="M76.11 36.407l3.84-16.94c.227-1-.34-2.01-1.313-2.337L38.462 3.613c-.67-.226-1.41-.08-1.946.382L8.11 28.552c-.503.435-.757 1.09-.68 1.75l4.7 39.608c.112.936.86 1.667 1.798 1.756l14.745 1.396c3.583 14.49 16.717 24.855 31.784 24.855 18.056 0 32.744-14.69 32.744-32.744.002-11.95-6.656-23.07-17.09-28.766zm-23.424-3.05c2.948-.72 6.03-1.023 9.073-.904 1.103.042 1.963.972 1.92 2.075-.042 1.104-.924 1.975-2.075 1.922-2.672-.102-5.383.162-7.972.792-.16.04-.318.057-.476.057-.9 0-1.72-.614-1.94-1.528-.262-1.072.395-2.154 1.47-2.416zM28.45 58.24c.643-2.986 1.704-5.867 3.154-8.563.523-.974 1.736-1.34 2.708-.815.973.523 1.337 1.736.814 2.71-1.272 2.363-2.203 4.89-2.768 7.51-.202.937-1.03 1.578-1.953 1.578-.14 0-.28-.015-.423-.045-1.08-.232-1.766-1.297-1.533-2.376zm5.843 15.342c-.063 0-.127-.003-.19-.01L30.12 73.2c-.88-.083-1.6-.734-1.773-1.6-.277-1.39-.465-2.81-.56-4.22-.075-1.104.758-2.057 1.86-2.13 1.114-.097 2.056.76 2.13 1.86.05.75.13 1.503.24 2.25l2.46.233c1.1.105 1.908 1.08 1.804 2.18-.096 1.038-.967 1.814-1.987 1.814zm4.14-27.863c-.502 0-1.006-.188-1.395-.567-.79-.77-.807-2.037-.036-2.828 2.136-2.19 4.56-4.07 7.21-5.587.957-.55 2.18-.217 2.728.742.55.958.217 2.18-.742 2.73-2.325 1.33-4.456 2.982-6.332 4.907-.392.402-.912.604-1.432.604zm13.96 29.577c-.062 0-.126-.003-.19-.01l-9.05-.855c-1.1-.104-1.907-1.08-1.803-2.18s1.08-1.903 2.18-1.803l9.05.855c1.1.104 1.906 1.08 1.803 2.18-.1 1.036-.97 1.812-1.99 1.812zm15.864-4.226l-.884 3.9c-.208.92-1.023 1.56-1.948 1.56-.063 0-.126-.004-.19-.01l-3.98-.376c-1.102-.104-1.908-1.08-1.805-2.18s1.074-1.91 2.18-1.803l2.23.212.497-2.187c.244-1.076 1.312-1.756 2.393-1.508 1.076.246 1.75 1.316 1.507 2.394zm4.42-19.5l-2.21 9.75c-.21.928-1.036 1.558-1.95 1.558-.145 0-.294-.016-.443-.05-1.077-.244-1.752-1.315-1.508-2.393l2.21-9.75c.243-1.078 1.312-1.75 2.393-1.51 1.075.246 1.75 1.318 1.506 2.395zm3.092-13.652l-.885 3.9c-.21.93-1.035 1.56-1.948 1.56-.146 0-.295-.016-.443-.05-1.078-.244-1.753-1.315-1.51-2.393l.523-2.306c-.665-.278-1.34-.53-2.02-.755-1.05-.347-1.62-1.48-1.272-2.527.346-1.048 1.48-1.617 2.526-1.27 1.344.443 2.67.98 3.946 1.597.84.405 1.29 1.335 1.083 2.243z"/></svg>