<svg xmlns="http://www.w3.org/2000/svg" viewBox="0 0 100 100"><path d="M15 20c-1.104 0-2-.896-2-2v-5c0-1.104.896-2 2-2h5c1.104 0 2 .896 2 2s-.896 2-2 2h-3v3c0 1.104-.896 2-2 2zM15 60c-1.104 0-2-.896-2-2V48c0-1.104.896-2 2-2s2 .896 2 2v10c0 1.104-.896 2-2 2zM15 40c-1.104 0-2-.896-2-2V28c0-1.104.896-2 2-2s2 .896 2 2v10c0 1.104-.896 2-2 2zM19.174 76.75c-.377 0-.76-.107-1.098-.33L13.9 73.67c-.562-.37-.9-.997-.9-1.67v-5c0-1.104.896-2 2-2s2 .896 2 2v3.922l3.276 2.156c.923.607 1.178 1.848.57 2.77-.384.585-1.02.9-1.672.9zM74.99 91H64.975c-1.104 0-2-.896-2-2s.896-2 2-2H74.99c1.104 0 2 .896 2 2s-.896 2-2 2zM54.963 91H44.95c-1.105 0-2-.896-2-2s.895-2 2-2h10.013c1.104 0 2 .896 2 2s-.896 2-2 2zM35.904 87.763c-.377 0-.76-.106-1.098-.33l-8.363-5.507c-.922-.607-1.178-1.848-.57-2.77.607-.923 1.848-1.18 2.77-.57l8.364 5.507c.922.607 1.178 1.848.57 2.77-.385.583-1.022.9-1.673.9zM90 91h-5c-1.104 0-2-.896-2-2s.896-2 2-2h2.866l-.186-2.86c-.07-1.102.765-2.054 1.867-2.125 1.09-.07 2.054.765 2.125 1.867l.323 4.99c.035.55-.16 1.092-.537 1.496-.377.403-.905.632-1.458.632zM89.146 77.877c-1.046 0-1.925-.812-1.994-1.87l-.527-8.133c-.07-1.103.765-2.055 1.866-2.126 1.12-.067 2.055.765 2.127 1.866l.527 8.133c.07 1.103-.765 2.055-1.866 2.126-.045.003-.088.004-.132.004zM88.092 61.61c-1.046 0-1.925-.81-1.994-1.87l-.23-3.548-3.44-.898c-1.07-.28-1.71-1.372-1.43-2.44.278-1.068 1.366-1.71 2.44-1.43l4.838 1.263c.833.22 1.434.946 1.49 1.806l.324 4.99c.07 1.102-.764 2.053-1.866 2.125l-.132.003zM77.12 53.84c-.168 0-.338-.02-.508-.064l-5.813-1.52c-1.07-.278-1.71-1.37-1.43-2.44.278-1.07 1.365-1.712 2.44-1.43l5.813 1.52c1.068.278 1.708 1.37 1.43 2.44-.235.898-1.045 1.495-1.934 1.495zM65.492 50.803c-.167 0-.337-.02-.507-.065l-4.838-1.264c-.646-.17-1.167-.65-1.385-1.283s-.105-1.33.3-1.863l3.03-3.978c.668-.878 1.922-1.05 2.802-.38.88.67 1.05 1.924.38 2.803l-1.21 1.59 1.933.504c1.068.28 1.708 1.372 1.43 2.44-.236.9-1.046 1.496-1.935 1.496zM70.43 36.7c-.42 0-.847-.133-1.21-.41-.878-.668-1.048-1.923-.378-2.802l6.75-8.86c.668-.88 1.92-1.05 2.802-.38.88.67 1.05 1.924.38 2.803l-6.75 8.862c-.394.517-.99.788-1.593.788zM83.948 18.978c-.42 0-.844-.132-1.205-.405-.88-.667-1.055-1.92-.388-2.802l.583-.77H82c-1.104 0-2-.896-2-2s.896-2 2-2h4.96c.76 0 1.453.43 1.79 1.11s.263 1.49-.195 2.097l-3.01 3.978c-.394.52-.99.793-1.597.793zM73 15h-9c-1.104 0-2-.896-2-2s.896-2 2-2h9c1.104 0 2 .896 2 2s-.896 2-2 2zM55 15h-9c-1.104 0-2-.896-2-2s.896-2 2-2h9c1.104 0 2 .896 2 2s-.896 2-2 2zM37 15h-9c-1.104 0-2-.896-2-2s.896-2 2-2h9c1.104 0 2 .896 2 2s-.896 2-2 2z"/><circle cx="68.331" cy="72.493" r="6.845"/></svg>