<svg xmlns="http://www.w3.org/2000/svg" viewBox="0 0 100 100"><circle cx="88.472" cy="11.528" r="5.824"/><circle cx="88.472" cy="88.472" r="5.824"/><circle cx="50" cy="50" r="5.824"/><circle cx="11.528" cy="88.472" r="5.824"/><circle cx="11.528" cy="11.528" r="5.824"/><path d="M48 40.382V12H21.328c-.24 5.04-4.288 9.087-9.328 9.328V48h28.382c.792-3.815 3.803-6.826 7.618-7.618zM59.618 48H88V21.328c-5.04-.24-9.087-4.288-9.33-9.328H52v28.382c3.815.792 6.826 3.803 7.618 7.618zM40.382 52H12v26.67c5.04.242 9.087 4.29 9.328 9.33H48V59.618c-3.815-.792-6.826-3.803-7.618-7.618zM88 78.67V52H59.618c-.792 3.815-3.803 6.826-7.618 7.618V88h26.67c.242-5.04 4.29-9.088 9.33-9.33z"/></svg>