<svg xmlns="http://www.w3.org/2000/svg" viewBox="0 0 100 100"><path d="M10.658 91.166c-.512 0-1.024-.195-1.414-.586-.78-.78-.78-2.047 0-2.828l7.07-7.07c.78-.782 2.05-.782 2.83 0 .78.78.78 2.046 0 2.827l-7.072 7.07c-.39.39-.903.586-1.414.586zM53.084 48.74c-.512 0-1.023-.195-1.414-.586-.78-.78-.78-2.047 0-2.828l7.07-7.07c.782-.782 2.048-.782 2.83 0 .78.78.78 2.046 0 2.827l-7.072 7.07c-.39.39-.902.587-1.414.587zM67.227 34.598c-.512 0-1.023-.195-1.414-.586-.78-.78-.78-2.047 0-2.828l7.07-7.07c.782-.782 2.048-.782 2.83 0 .78.78.78 2.046 0 2.827l-7.072 7.072c-.39.39-.902.586-1.413.586zM81.368 20.456c-.512 0-1.023-.195-1.414-.586-.78-.78-.78-2.047 0-2.828l7.07-7.07c.782-.782 2.048-.782 2.83 0 .78.78.78 2.046 0 2.827l-7.072 7.07c-.39.39-.902.586-1.414.586zM27.655 69.34l-4.27 4.27c-.78.78-.78 2.046 0 2.827.39.39.902.586 1.414.586s1.022-.195 1.413-.586l4.27-4.27c-1.14-.72-2.105-1.687-2.828-2.827zM47.427 52.396c-.78-.78-2.048-.78-2.828 0l-4.422 4.42c1.14.723 2.106 1.69 2.828 2.83l4.42-4.422c.782-.78.782-2.046 0-2.828z"/><circle cx="35.331" cy="64.493" r="6.845"/></svg>