<svg xmlns="http://www.w3.org/2000/svg" viewBox="0 0 100 100"><path d="M51.458 93.438c-2.885 0-5.768-.285-8.568-.85-1.083-.217-1.785-1.27-1.567-2.354.217-1.082 1.272-1.782 2.355-1.566 3.09.622 6.307.865 9.467.735 1.13-.052 2.034.812 2.08 1.915.047 1.104-.81 2.035-1.914 2.08-.614.027-1.23.04-1.852.04zM63.065 91.784c-.865 0-1.663-.566-1.92-1.44-.31-1.06.3-2.17 1.36-2.48 3.038-.89 5.97-2.152 8.715-3.754.954-.556 2.18-.235 2.735.72.557.954.234 2.18-.72 2.735-3.024 1.765-6.257 3.157-9.608 4.14-.187.053-.375.08-.562.08zM33.817 89.49c-.287 0-.58-.063-.855-.193-3.155-1.495-6.128-3.375-8.838-5.588-.856-.7-.983-1.96-.285-2.814.697-.856 1.958-.983 2.813-.285 2.46 2.01 5.16 3.716 8.022 5.072.998.474 1.424 1.666.95 2.664-.34.72-1.06 1.143-1.808 1.143zM80.174 81.807c-.522 0-1.044-.203-1.437-.608-.77-.794-.75-2.06.045-2.83 2.28-2.21 4.29-4.692 5.97-7.375.587-.937 1.82-1.22 2.757-.634.936.587 1.22 1.82.633 2.758-1.85 2.955-4.063 5.69-6.577 8.126-.388.375-.89.563-1.392.563zM18.477 76.97c-.607 0-1.206-.276-1.6-.798-2.105-2.798-3.866-5.844-5.234-9.054-.433-1.017.04-2.19 1.056-2.624 1.015-.436 2.19.04 2.623 1.056 1.24 2.913 2.84 5.677 4.75 8.216.665.883.488 2.137-.395 2.8-.36.272-.782.403-1.2.403zM90.682 65.028c-.206 0-.416-.032-.622-.1-1.05-.345-1.622-1.474-1.278-2.523.983-3.006 1.6-6.138 1.833-9.308.082-1.102 1.033-1.938 2.142-1.848 1.102.08 1.93 1.038 1.85 2.14-.258 3.493-.94 6.945-2.023 10.26-.277.842-1.06 1.378-1.902 1.378zM10.715 58.75c-.965 0-1.814-.7-1.972-1.684-.366-2.273-.55-4.593-.55-6.894 0-1.18.047-2.376.142-3.553.09-1.1 1.046-1.918 2.156-1.833 1.102.09 1.922 1.055 1.833 2.156-.087 1.07-.13 2.155-.13 3.228 0 2.09.168 4.196.5 6.26.175 1.092-.566 2.118-1.657 2.293-.108.018-.215.026-.32.026zM92.147 45.28c-.96 0-1.807-.692-1.97-1.67-.526-3.125-1.435-6.187-2.7-9.096-.44-1.013.023-2.19 1.036-2.632 1.01-.44 2.19.023 2.632 1.036 1.396 3.208 2.396 6.583 2.977 10.03.183 1.09-.552 2.12-1.642 2.304-.11.02-.223.028-.333.028zM12.334 39.015c-.21 0-.426-.034-.637-.104-1.047-.35-1.61-1.485-1.26-2.532 1.113-3.308 2.63-6.482 4.514-9.435.595-.93 1.83-1.205 2.763-.61.93.593 1.205 1.83.61 2.76-1.707 2.68-3.085 5.56-4.093 8.56-.28.834-1.06 1.362-1.896 1.362zM84.25 27.12c-.6 0-1.194-.27-1.59-.785-1.926-2.52-4.157-4.804-6.633-6.792-.86-.69-.998-1.95-.307-2.812.693-.86 1.95-.998 2.812-.306 2.725 2.19 5.183 4.706 7.306 7.48.67.876.504 2.132-.374 2.803-.36.28-.788.413-1.213.413zM22.973 22.315c-.528 0-1.054-.208-1.447-.62-.763-.798-.733-2.064.066-2.827 2.53-2.416 5.35-4.52 8.378-6.256.96-.55 2.18-.217 2.73.74.55.96.217 2.182-.74 2.73-2.75 1.576-5.31 3.487-7.607 5.68-.387.37-.884.553-1.38.553zM69.39 15c-.292 0-.59-.065-.87-.2-2.855-1.38-5.878-2.41-8.98-3.06-1.082-.226-1.774-1.286-1.55-2.367.23-1.08 1.285-1.774 2.37-1.548 3.42.716 6.752 1.85 9.9 3.373.995.48 1.412 1.676.932 2.67-.345.715-1.06 1.13-1.802 1.13zM40.157 12.474c-.872 0-1.673-.574-1.923-1.454-.302-1.062.315-2.168 1.377-2.47 3.35-.952 6.826-1.496 10.33-1.616 1.104-.033 2.03.826 2.07 1.93s-.827 2.03-1.93 2.068c-3.183.11-6.336.603-9.376 1.466-.183.05-.367.076-.547.076zM87.82 40.86L62.79 14.106c-.778-.832-1.844-1.267-2.923-1.267-.7 0-1.405.183-2.04.56l-41.25 24.497c-1.318.782-2.072 2.247-1.945 3.772l1.85 22.152c.137 1.623 1.243 3.002 2.798 3.486l48.8 15.19c.393.123.794.18 1.188.18 1.543 0 2.996-.897 3.654-2.372l15.63-35.087c.654-1.47.365-3.187-.733-4.36z"/></svg>