<svg xmlns="http://www.w3.org/2000/svg" viewBox="0 0 100 100"><path d="M54.67 11.225c3.19.48 5.875 7.443 10.04 6.125-.617-4.658-.98-6.61-5.383-8.463-2.925-1.23-8.6 1.744-4.658 2.338zM75.208 51.717c-2.94-.63-3.575-4.187-6.105-5.514-4.666-2.447-9.315-1.62-14.103-2.993-3.185-.914-2.316-2.1-3.193-4.304-.425-1.067-3.81 1.81-4.764-.98-.705-2.062-.005-3.792 2.115-4.132 4.188-.672 2.95.73 5.45 1.814 2.238.97 1.203-3.815 1.775-4.554 2.466-3.18 4.932-5.413 8.337-7.397-2.672-4.133-11.25-8.916-10.085-.748-14.71-5.844 3.82-5.51 2.805-7.405-4.692-3.127-6.374-.18-11.088-.628-3.847-.365-4.896-3.11-7.795-4-2.14-.656-12.96 4.948-12.782 6.303.512 3.888 12.037-6.092 11.17 6.775-.282 4.168.528 12.397 4.263 13.965 2.614 2.353 8.96 4.557 7.973 4.166 7.818 3.095 7.886 4 7.102 11.213-.448 4.12 4.62 5.33 4.133 9.87-.26 2.437-5.276 13.768-2.947 15.31.52.344 12.24-12.61 14.063-14.452 3.512-3.545 12.488-10.42 3.678-12.31-1.124-.242 1.736.37 0 0z"/><path d="M50 2.608c-25.796 0-47.334 21.538-47.334 47.334S24.204 97.276 50 97.276s47.334-21.538 47.334-47.334S75.796 2.608 50 2.608zM64.43 89.85c-3.1.106-4.654 1.958-7.335.654-4.43-2.155.857-6.765 3.143-7.594-4.046-3.274-7.295 7.125-11.203 3.415-.09 2.12-6.783.722-7.48 6.118C14.58 87.093-.9 56.923 10.602 31.903c5.426-11.8 16.147-20.772 28.743-23.97C45.9 6.27 52.843 6.17 59.446 7.65c3.995.894 7.856 2.364 11.438 4.345 2.326 1.286 2.756 6.956 5.824 6.45l.29-1.15c2.004.403 3.707 2.018 4.216 4-2.043 1.312 3.187 4.843 3.595 7.262.63 3.742-1.126 20.675 8.34 17.482 1.704 18.982-9.622 37.284-27.366 44.25-1.12-.443-1.355-.436-1.355-.436z"/></svg>