<svg xmlns="http://www.w3.org/2000/svg" viewBox="0 0 100 100"><path d="M54.67 11.225c1.66.25 3.092 1.63 3.404 3.28 1.244.04 2.263.943 3.237 1.718.975.775 2.213 1.502 3.4 1.126-.15-1.138-.3-2.275-.452-3.412-.1-.763-.21-1.55-.6-2.213-.555-.947-1.585-1.493-2.563-1.992-1.162-.592-2.345-1.192-3.628-1.426-1.283-.234-2.704-.054-3.708.778-.478.396-.85 1.107-.496 1.616.294.427.895.448 1.405.525zM66.997 12.265c1.027.093 1.96.858 2.253 1.846.042.143.07.305-.005.434-.1.172-.332.204-.53.197-.32-.01-.642-.074-.928-.218-.38-.19-.687-.523-.848-.916-.162-.394-.175-.845-.038-1.248M75.208 51.717c-1.124-.24-2.34-1.324-2.975-2.235-.42-.6-.71-1.29-1.18-1.853-.52-.622-1.233-1.05-1.95-1.427-3.12-1.635-6.64-2.5-10.16-2.522-2.32-.013-5.814-.327-7.148-2.74-.22-.398-.023-.885.068-1.333s-.065-1.06-.52-1.083c-.87-.044-1.073.994-2.17.867-.79-.09-1.862-.68-2.13-1.463-.244-.714.005-2.31.058-3.07.1-1.403 5.545-1.315 6.53-1.233-.185 1.072.898 2.747 2.097 1.772 1.04-.844-.248-3.176.657-4.342 1.18-1.524 2.697-3.045 4.03-4.475.374-.404.75-.808 1.18-1.15.94-.748 2.09-1.17 3.127-1.774-2.025-3.134-5.698-5.134-9.43-5.135-.287 0-.602.022-.814.217-.28.256-.263.693-.223 1.07.11 1.035.237 2.07.384 3.1-1.063-.42-2.127-.844-3.19-1.266-.79-.312-1.617-.655-2.13-1.33-.514-.677-.547-1.794.157-2.267.992-.667 2.498.38 3.478-.303.59-.412.743-1.32 1.408-1.596.595-.245 1.24.155 1.868.295.628.14 1.517-.368 1.213-.936-1.723-1.15-3.69-2.35-5.724-1.95-1.023.203-1.925.798-2.922 1.103-2.405.737-4.96-.276-7.27-1.272-.353-.152-.717-.31-.976-.594-.294-.32-.418-.762-.67-1.118-.795-1.127-3.757-1.124-3.563-1.18-.25-.02-.73.542-.98.52-.218-.02-2.433 2.247-2.838 2.52-1.357.913-2.885 1.288-4.538 1.776-1.626.48-3.473 2.333-.944 2.458 2.072.102 5.087-.64 7.104-1.103.372-.085.778-.177 1.12-.01.337.163.518.528.66.873 1.26 3.036 1.42 6.514.448 9.653-.332 1.07-.796 2.203-.47 3.277.473 1.548 2.42 2.356 2.712 3.948.125.685-.085 1.43.2 2.066.666 1.49 2.7.824 3.85.558-.006.002.17 2.318.328 2.572.558.895 2.018 1.123 2.938 1.38 3.393.95 6.378 2.392 9.436 4.136.74.422 1.514.876 1.945 1.612 1.155 1.97-.758 4.302-1.005 6.572-.14 1.287.308 2.625 1.194 3.57.503.535 1.132.942 1.632 1.483 1.165 1.26 1.49 3.112 1.307 4.82-.183 1.706-.81 3.327-1.337 4.96-.983 3.057-1.622 6.224-1.9 9.422-.083.953.43 1.2 1.283.94 1.218-.373 1-1.522 1.307-2.428.885-2.61 3.7-4.935 6.102-6.072 1.066-.505 2.237-.888 3.065-1.73 1.168-1.185 1.424-3.053 2.596-4.236 1-1.01 2.514-1.366 3.52-2.366 1.093-1.085 1.474-2.675 2.183-3.997.534-.995 1.556-1.808 2.007-2.81 1.35-2.998-2.296-2.768-4.032-3.14z"/><path d="M50 2.608C23.858 2.608 2.666 23.8 2.666 49.942c0 26.142 21.192 47.334 47.334 47.334s47.334-21.192 47.334-47.334C97.334 23.8 76.142 2.608 50 2.608zm15.784 87.68c-1.12-.444-2.35-.6-3.534-.376-1.74.33-3.564 1.367-5.156.592-1.577-.767-1.895-3.052-1.033-4.58.863-1.528 2.528-2.416 4.177-3.013-1.12-.906-2.838-.485-4 .37-1.162.854-2.03 2.066-3.213 2.89-1.184.822-2.944 1.15-3.99.156-.035.82-.992 1.288-1.812 1.285-.82-.002-1.633-.29-2.445-.182-1.097.146-1.99 1.01-2.477 2.003-.456.935-.612 1.98-.745 3.014-19.865-3.94-34.89-21.497-34.89-42.502C6.666 26.047 26.106 6.608 50 6.608c8.65 0 16.71 2.558 23.482 6.943-.13.685-.18 1.374-.062 2.062.268 1.584 1.702 3.093 3.288 2.832l.29-1.15c2.002.402 3.708 2.02 4.216 3.998-.605.39-.942 1.155-.82 1.864 2.435.457 4.003 2.957 4.415 5.4s-.024 4.94.004 7.416c.044 3.895 1.618 8.176 5.168 9.78.987.445 2.165.623 3.167.285.115 1.288.184 2.59.184 3.906 0 18.325-11.44 34.02-27.55 40.344z"/></svg>