<svg xmlns="http://www.w3.org/2000/svg" viewBox="0 0 100 100"><path d="M28.318 65.346c.634.008 1.01-.696 1.19-1.304.674-2.247.726-4.676.15-6.95l-.93.053c.33 1.393-.68 2.957-2.085 3.232-.203 1.34-.006 2.74.56 3.97.22.48.587.993 1.115 1zM74.71 59.54c-.842-.202-.802-1.43-1.32-2.125-.798-1.076-2.488-.515-3.657.14-1.8 1.005-3.672 1.938-5.422 3.03-2.06 1.285-2.263 3.833-2.586 5.993-.16 1.078-.736 1.973.248 2.656 1.86 1.292 4.482-1.764 6.358-2.042 2.497-.37 2.644 3.15 4.172 4.47.676.583 1.617.846 2.497.698.88-.15 1.682-.706 2.13-1.478.355-1.398.963-2.277 1.787-3.466.596-.86 1.22-1.834 1.063-2.868-.14-.91-.845-1.605-1.385-2.35-1.294-1.783-1.713-4.172-1.103-6.29-.85-.004-1.182 1.082-1.31 1.923-.13.84-.644 1.91-1.47 1.71zM52.53 46.896l-.137.436c.8.35 1.25 1.185 1.687 1.94.436.75.918 1.478 1.496 2.126.657.736 1.435 1.364 2.288 1.86 1.513.878 3.23 1.33 4.922 1.77 1.168.304 2.348.61 3.554.655s2.46-.193 3.443-.892c-2.523-.13-5.097-.042-7.522-.753-2.175-.638-4.157-1.923-5.627-3.65-.597-.7-1.112-1.472-1.753-2.135-.64-.663-1.44-1.224-2.35-1.356z"/><path d="M63.168 52.315c.214.013.438.01.628-.088.452-.233.5-.844.555-1.35.092-.83.367-1.64.8-2.354.21-.344.457-.67.59-1.05.13-.38.124-.842-.143-1.143-.306-.346-.855-.37-1.284-.197-.43.17-.775.496-1.138.78-.574.45-1.216.813-1.75 1.31-.534.496-.964 1.17-.942 1.9.02.634.39 1.227.902 1.603.51.375 1.15.55 1.783.59zM71.874 50.45c-.153.676.43 1.302 1.043 1.63.612.33 1.323.527 1.786 1.044.365.408.52.956.79 1.433.266.477.743.924 1.286.854.49-.062.873-.533 1.368-.54.547-.01.918.523 1.258.953.34.43.945.83 1.39.512.358-.254.32-.832.04-1.17s-.714-.493-1.128-.635c-.078-.332.038-.702.29-.93-1.228-.73-2.458-1.457-3.687-2.184-.5-.297-1.097-.603-1.638-.387-.402.16-.726.595-1.154.53-.356-.056-.552-.43-.752-.73s-.592-.58-.892-.38zM72.42 26.824c-.257-.625-.744-1.268-.51-1.902.047-.13.126-.258.115-.397-.02-.24-.28-.367-.49-.486-.862-.49-1.27-1.486-1.76-2.347s-1.303-1.73-2.29-1.623l1.2 1.56c.855 1.115 1.728 2.262 2.133 3.607.405 1.346.25 2.953-.753 3.94-.3.295-.663.523-.98.803s-.595.637-.65 1.056c-.053.42.188.896.6.986.27.06.548-.05.797-.17.935-.454 1.786-1.13 2.308-2.03s.678-2.037.28-2.998zM72.3 73.758c-.088.125-.105.286-.12.44-.05.555-.1 1.112-.152 1.668.24.123.507-.1.676-.31.485-.602.89-1.27 1.2-1.977-.262.1-.554.016-.83-.027-.277-.044-.61-.024-.773.205z"/><path d="M50 2.608C23.858 2.608 2.666 23.8 2.666 49.942c0 26.142 21.192 47.334 47.334 47.334s47.334-21.192 47.334-47.334C97.334 23.8 76.142 2.608 50 2.608zm15.63 6.928c-.94.407-1.873.89-2.792 1.287-3.404 1.466-7.182 1.746-10.88 2.007l-5.79.41c-.033.6-.552 1.14-1.152 1.193-.6.055-1.207-.38-1.347-.967-1.85 1.35-4.33 1.79-6.53 1.157.002-.823 1.162-1.358 1.79-.825.34-1.123-.595-2.312-1.71-2.68-1.115-.368-2.328-.142-3.48.087-1.33.265-2.69.54-3.86 1.232-1.167.692-2.126 1.89-2.155 3.248l7.34-3.174c-1.296 1.15-2.59 2.297-3.886 3.444-.786.695-1.684 1.434-2.732 1.39-1.048-.046-1.967-1.417-1.233-2.166-1.395.988-3.148 1.156-4.862 1.425C29.86 10.363 39.5 6.608 50 6.608c5.51 0 10.778 1.044 15.63 2.928zM17.702 21.09c1.12-.075 2.28.382 3.005 1.246.875 1.042 1.07 2.606.478 3.832l2.315-.234.27 1.233 2.237.144c-.1 1.55-1.172 2.993-2.626 3.538-1.453.544-3.21.16-4.302-.943-.776.435-1.66-.545-1.706-1.434-.047-.888.322-1.782.143-2.654-.21-1.014-1.14-1.663-2.176-1.853.746-.993 1.536-1.95 2.362-2.872zm40.914 71.323c.16-.417.213-.864.1-1.303 1.48.213 3.044-.252 4.167-1.238.624-1.52-.253-3.325-1.584-4.29-1.332-.963-3.01-1.286-4.625-1.584-3.553-.655-7.154-.256-10.708.16-2.934.345-6.25.98-8.32 3.286-.862.958-1.422 2.237-1.578 3.52-17.08-5.815-29.404-22-29.404-41.022 0-2.063.155-4.09.435-6.078.527.704 1.32 1.214 2.186 1.19l2.673 11.18c1.107 4.632 2.274 9.397 5.07 13.254.59.813 1.31 1.618 2.28 1.874 1.58.416 3.198-.84 3.82-2.352.62-1.51.518-3.204.514-4.838-.02-7.288 2.14-14.568 6.133-20.664-1.603.567-3.705 1.003-4.738-.347-.464-.604-.55-1.408-.617-2.166l-.708-7.876c1.337 3.038 2.13 6.313 2.333 9.625 2.538-.36 4.972-1.424 6.962-3.04.578-.47 1.16-1.07 1.176-1.813.048-2.058-3.72-2.148-4.15-4.16.073.346 6.267 2.244 7.03 2.69 2.106 1.23 2.736 3.84 3.782 5.975.38.773.474 1.685.957 2.4.35.517.953.91 1.57.826 1.362-.185 2.27-3.532 2.86-4.658 1.15-2.197 2.457-3.595 4.192-1.358 1.472 1.9 3.48 4.082 4.474 6.275.79 1.735 1.033 4.037 3.64 3.935.28-.01-1.575-2.805-1.726-2.994-.895-1.118-1.404-2.23-2.003-3.588.758.967 1.84 1.753 3.066 1.848 1.224.094 2.55-.672 2.808-1.872s-.915-2.557-2.103-2.246c-.305-.683.28-1.475.97-1.76.693-.284 1.47-.25 2.202-.407 2.64-.572 4.097-4.12 2.618-6.383-.76-1.162-2.137-2.564-1.245-3.628.524-.625 1.586-.515 2.187.036.6.55.836 1.392.958 2.2l.756-.18c.696-3.366 1.31-7.053-.29-10.096-.453-.86-1.08-1.88-.577-2.71.286-.472.852-.684 1.273-1.043s.66-1.1.207-1.42l1.43.065c-.108 2.354 1.673 4.653 3.98 5.14-1.115-2.898-1.946-5.904-2.486-8.962C84.11 19.148 93.332 33.49 93.332 49.946c.002 20.94-14.935 38.46-34.716 42.467z"/><path d="M84.41 73.86l-7.675 6.333c3.503-.34 6.675-2.958 7.674-6.332z"/></svg>