<svg xmlns="http://www.w3.org/2000/svg" viewBox="0 0 100 100"><path d="M28.318 65.346c2.655.033 1.624-7.137 1.34-8.254-1.86.106-5.13 8.207-1.34 8.254zM74.71 59.54c-1.81-.435-.244-3.066-3.01-2.704-2.577.338-7.65 3.054-8.903 5.394-2.712 5.06-1.397 8.646 4.01 5.58 4.05-2.297 6.958 8.89 10.323 3.07.525-2.057 3.187-4.124 2.85-6.333-.517-3.392-3.647-4.616-2.488-8.638-1.854-.012-.777 4.113-2.78 3.63zM63.168 52.315c1.017.064 3.235-5.074 2.43-5.985-1.635-1.848-8.985 5.572-2.43 5.985zM72.874 49.45c-.472 2.083 7.736 6.732 8.923 5.886 1.96-1.397-7.255-6.99-8.923-5.887-.154.676.3-.2 0 0z"/><path d="M50 2.608c-25.796 0-47.334 21.538-47.334 47.334S24.204 97.276 50 97.276s47.334-21.538 47.334-47.334S75.796 2.608 50 2.608zm14.473 7.39c-6.438 2.787-11.366 2.75-18.306 3.24-.07 1.284-7.46 1.836-9.028 1.384.002-.823 1.162-1.358 1.79-.825 1.313-4.318-8.717-4.562-8.826.592 2.446-1.06 2.514-.823 4.96-1.88-1.628 1.442-3.26 3.306-5.152 4.414-.98.574-4.273-.138-2.697-1.748-1.51.85-3.13 1.324-4.862 1.425C34.32 6.66 51.117 3.903 65.63 9.537c-.94.407 0 0-1.157.462zM18.318 21.102c1.822.007 2.627 2.33 3.456 3.59 0 0 2.482 3.225 4.234 2.618-.22 3.41-4.523 5.02-6.93 2.593-1.58-1.4-.982-5.436-3.738-5.94.746-.993 1.536-1.95 2.362-2.873 0 0 .25-.043.616.012zm42.463 70.21c.44-.344 1.157-.25 2.103-1.44 4.804-6.052-25.457-10.078-26.815 1.093C16.588 84.33 4.228 64.24 7.1 43.865c2.386.597 3.077 4.915 3.077 4.915.816 3.414 1.592 6.84 2.467 10.24.856 3.33 2.61 11.272 6.667 12.34 5.277 1.392 4.257-7.86 4.458-10.308.51-6.225 2.587-12.32 6.01-17.544-6.785 2.402-5.676-6.09-6.063-10.39 1.337 3.037 3.755 4.988 3.958 8.3 2.073-.295 5.007-.68 5.075-3.582.053-2.304-2.257-1.988-2.71-4.108.24 1.13 5.954 2.062 7.03 2.69 1.983 1.16 5.15 11.908 7.525 8.16 1.045-1.647 2.88-8.79 5.836-4.976 1.672 2.158 2.527 8.67 5.466 8.554-.44.017-.9-4.515-1.082-4.926 1.263 1.612 5.185 3.154 5.873-.025.638-2.946-5.252-3.044 1.068-4.413 2.65-.574 4.102-4.113 2.618-6.383-2.823-4.318 1.297-5.377 1.9-1.395 2.607-.613 1.437-8.43.465-10.275-.967-1.837 1.452-4.787.905-5.173 2.79.124 1.712 4.424 5.41 5.203-1.115-2.898-1.946-5.904-2.486-8.962 34.858 18.875 26.893 72.736-11.95 80.605.16-.417.84-.475 2.164-1.1z"/></svg>