<?xml version="1.0" encoding="iso-8859-1"?>
<!-- Generator: Adobe Illustrator 18.1.1, SVG Export Plug-In . SVG Version: 6.00 Build 0)  -->
<svg version="1.1" xmlns="http://www.w3.org/2000/svg" xmlns:xlink="http://www.w3.org/1999/xlink" x="0px" y="0px"
	 viewBox="0 0 100 100" style="enable-background:new 0 0 100 100;" xml:space="preserve">
<g id="turf-convex">
	<g>
		<path d="M22.425,47.647c-0.628,0-1.256-0.235-1.742-0.707c-0.99-0.962-1.013-2.544-0.051-3.535l6.476-6.666
			c0.96-0.991,2.544-1.014,3.535-0.051c0.99,0.962,1.013,2.544,0.051,3.535l-6.476,6.666C23.729,47.394,23.077,47.647,22.425,47.647
			z M35.377,34.314c-0.628,0-1.256-0.235-1.742-0.707c-0.99-0.962-1.013-2.544-0.051-3.535l6.476-6.667
			c0.961-0.992,2.544-1.013,3.535-0.051c0.99,0.962,1.013,2.544,0.051,3.535l-6.476,6.667C36.68,34.061,36.029,34.314,35.377,34.314
			z"/>
		<path d="M76.742,81.856c-0.301,0-0.606-0.055-0.903-0.17l-7.481-2.903c-1.287-0.5-1.926-1.948-1.427-3.235
			c0.5-1.288,1.949-1.926,3.235-1.427l7.481,2.903c1.287,0.5,1.926,1.948,1.427,3.235C78.689,81.25,77.744,81.856,76.742,81.856z
			 M61.779,76.05c-0.301,0-0.606-0.055-0.903-0.17l-7.481-2.903c-1.287-0.5-1.926-1.948-1.427-3.235
			c0.5-1.288,1.948-1.927,3.235-1.427l7.481,2.903c1.287,0.5,1.926,1.948,1.427,3.235C63.727,75.443,62.781,76.05,61.779,76.05z
			 M46.817,70.243c-0.298,0-0.601-0.054-0.896-0.167l-7.49-2.905c-1.287-0.5-1.926-1.948-1.426-3.235
			c0.499-1.288,1.948-1.925,3.235-1.427l7.474,2.899c1.289,0.495,1.933,1.941,1.438,3.23C48.77,69.633,47.822,70.243,46.817,70.243z
			 M31.854,64.438c-0.301,0-0.606-0.055-0.904-0.17l-7.481-2.903c-1.287-0.5-1.926-1.948-1.426-3.235s1.947-1.926,3.235-1.427
			l7.481,2.903c1.287,0.5,1.926,1.948,1.426,3.235C33.8,63.831,32.855,64.438,31.854,64.438z"/>
		<path d="M78.562,77.921c-0.588,0-1.178-0.206-1.653-0.625l-6.391-5.639c-1.035-0.914-1.134-2.494-0.221-3.529
			c0.914-1.035,2.493-1.133,3.529-0.221l6.391,5.639c1.035,0.914,1.134,2.494,0.221,3.529
			C79.944,77.635,79.255,77.921,78.562,77.921z M65.78,66.643c-0.588,0-1.178-0.206-1.653-0.625l-6.391-5.639
			c-1.035-0.914-1.134-2.494-0.221-3.529c0.913-1.034,2.493-1.133,3.529-0.221l6.391,5.639c1.035,0.914,1.134,2.494,0.221,3.529
			C67.162,66.356,66.473,66.643,65.78,66.643z"/>
		<path d="M50.417,39.85c-0.027,0-0.055,0-0.082-0.001c-1.38-0.044-2.463-1.199-2.418-2.579l0.286-8.87
			c0.045-1.38,1.213-2.456,2.579-2.418c1.38,0.044,2.462,1.199,2.418,2.579l-0.286,8.87C52.87,38.783,51.76,39.85,50.417,39.85z"/>
	</g>
	<circle cx="13.162" cy="54.683" r="5.824"/>
	<circle cx="51.116" cy="15.612" r="5.824"/>
	<circle cx="87.954" cy="83.706" r="5.824"/>
	<circle cx="50" cy="50.218" r="5.824"/>
</g>
<g id="Layer_1">
</g>
</svg>
