<?xml version="1.0" encoding="iso-8859-1"?>
<!-- Generator: Adobe Illustrator 19.0.0, SVG Export Plug-In . SVG Version: 6.00 Build 0)  -->
<svg version="1.1" xmlns="http://www.w3.org/2000/svg" xmlns:xlink="http://www.w3.org/1999/xlink" x="0px" y="0px"
	 viewBox="0 0 100 100" style="enable-background:new 0 0 100 100;" xml:space="preserve">
<g id="turf-union" style="display:none;">
	<path style="display:inline;" d="M76.111,36.407l3.838-16.94c0.228-1-0.34-2.01-1.312-2.337L38.462,3.613
		c-0.669-0.226-1.41-0.08-1.946,0.382L8.109,28.552c-0.502,0.435-0.756,1.089-0.678,1.749l4.7,39.609
		c0.111,0.936,0.859,1.667,1.797,1.756l14.745,1.396c3.583,14.489,16.717,24.855,31.784,24.855
		c18.056,0,32.744-14.689,32.744-32.744C93.202,53.224,86.544,42.104,76.111,36.407z M52.686,33.356
		c2.948-0.718,6.031-1.022,9.073-0.903c1.104,0.042,1.964,0.972,1.921,2.075c-0.042,1.104-0.924,1.975-2.075,1.922
		c-2.672-0.102-5.383,0.162-7.972,0.792c-0.159,0.039-0.318,0.057-0.476,0.057c-0.9,0-1.719-0.613-1.941-1.527
		C50.955,34.7,51.612,33.618,52.686,33.356z M28.449,58.242c0.644-2.986,1.705-5.867,3.155-8.563
		c0.523-0.973,1.736-1.338,2.708-0.814c0.973,0.523,1.337,1.736,0.814,2.709c-1.272,2.364-2.203,4.892-2.768,7.51
		c-0.202,0.938-1.031,1.579-1.953,1.579c-0.14,0-0.281-0.015-0.423-0.045C28.903,60.386,28.216,59.321,28.449,58.242z
		 M34.293,73.584c-0.063,0-0.127-0.003-0.191-0.009l-3.982-0.377c-0.879-0.083-1.6-0.734-1.773-1.601
		c-0.277-1.389-0.465-2.808-0.561-4.22c-0.074-1.103,0.759-2.056,1.861-2.13c1.114-0.096,2.056,0.76,2.13,1.86
		c0.05,0.751,0.131,1.504,0.241,2.252l2.46,0.232c1.1,0.104,1.907,1.08,1.803,2.18C36.184,72.808,35.313,73.584,34.293,73.584z
		 M38.434,45.721c-0.503,0-1.007-0.189-1.396-0.568c-0.791-0.771-0.807-2.037-0.036-2.828c2.136-2.191,4.561-4.071,7.209-5.587
		c0.958-0.549,2.181-0.217,2.729,0.742c0.549,0.958,0.217,2.18-0.742,2.729c-2.325,1.332-4.456,2.983-6.332,4.908
		C39.474,45.519,38.954,45.721,38.434,45.721z M52.393,75.297c-0.062,0-0.126-0.003-0.19-0.009l-9.05-0.856
		c-1.1-0.104-1.907-1.08-1.803-2.18s1.081-1.903,2.18-1.803l9.05,0.856c1.1,0.104,1.906,1.08,1.803,2.18
		C54.284,74.521,53.412,75.297,52.393,75.297z M68.257,71.071l-0.884,3.9c-0.208,0.918-1.023,1.558-1.948,1.558
		c-0.063,0-0.126-0.003-0.189-0.009l-3.982-0.376c-1.101-0.104-1.907-1.079-1.804-2.179s1.074-1.91,2.179-1.804l2.232,0.211
		l0.496-2.187c0.244-1.076,1.312-1.756,2.393-1.508C67.826,68.923,68.501,69.993,68.257,71.071z M72.676,51.57l-2.21,9.75
		c-0.21,0.928-1.035,1.558-1.948,1.558c-0.146,0-0.295-0.016-0.444-0.05c-1.077-0.244-1.752-1.315-1.508-2.393l2.21-9.75
		c0.243-1.078,1.312-1.751,2.393-1.509C72.245,49.421,72.92,50.493,72.676,51.57z M75.769,37.918l-0.884,3.901
		c-0.21,0.928-1.035,1.559-1.948,1.559c-0.146,0-0.295-0.016-0.443-0.05c-1.078-0.244-1.753-1.315-1.509-2.393l0.522-2.306
		c-0.665-0.277-1.341-0.53-2.021-0.754c-1.049-0.347-1.618-1.479-1.271-2.527c0.346-1.048,1.479-1.617,2.526-1.271
		c1.343,0.444,2.67,0.982,3.945,1.598C75.526,36.08,75.975,37.01,75.769,37.918z"/>
</g>
<g id="turf-tin">
	<circle cx="13.162" cy="54.683" r="5.824"/>
	<circle cx="51.116" cy="15.612" r="5.824"/>
	<circle cx="87.954" cy="83.706" r="5.824"/>
	<circle cx="50" cy="50.218" r="5.824"/>
	<path d="M40.7,53.359l-17.757,2.152c-0.205,2.423-1.287,4.598-2.934,6.202l58.146,22.491c-0.008-0.166-0.025-0.33-0.025-0.499
		c0-1.768,0.478-3.421,1.299-4.854L55.877,58.071c-1.641,1.232-3.672,1.971-5.877,1.971C45.683,60.042,42.015,57.239,40.7,53.359z"
		/>
	<path d="M59.824,50.218c0,1.767-0.476,3.423-1.296,4.858l23.546,20.775c1.454-1.089,3.218-1.786,5.134-1.931L58.899,21.583
		c-1.47,1.911-3.626,3.257-6.094,3.69l-0.497,15.407C56.614,41.722,59.824,45.597,59.824,50.218z"/>
	<path d="M48.311,40.55l0.496-15.391c-3.113-0.755-5.649-2.997-6.816-5.93L16.389,45.415c2.851,0.996,5.106,3.266,6.077,6.126
		l17.751-2.151C40.593,44.924,43.964,41.308,48.311,40.55z"/>
</g>
<g id="turf-simplify" style="display:none;">
	<path style="display:inline;" d="M51.458,93.438c-2.885,0-5.768-0.285-8.568-0.849c-1.083-0.218-1.785-1.272-1.567-2.355
		c0.217-1.082,1.272-1.782,2.355-1.566c3.09,0.622,6.307,0.865,9.467,0.735c1.129-0.052,2.034,0.812,2.081,1.915
		c0.046,1.104-0.812,2.035-1.915,2.081C52.696,93.425,52.079,93.438,51.458,93.438z"/>
	<path style="display:inline;" d="M63.065,91.784c-0.865,0-1.663-0.566-1.919-1.439c-0.31-1.06,0.298-2.171,1.358-2.481
		c3.039-0.89,5.972-2.152,8.716-3.754c0.954-0.556,2.179-0.235,2.735,0.72c0.557,0.954,0.234,2.179-0.72,2.735
		c-3.024,1.765-6.257,3.157-9.608,4.139C63.44,91.758,63.252,91.784,63.065,91.784z"/>
	<path style="display:inline;" d="M33.817,89.489c-0.287,0-0.579-0.062-0.855-0.192c-3.155-1.495-6.128-3.375-8.838-5.588
		c-0.856-0.698-0.983-1.958-0.285-2.813c0.698-0.856,1.959-0.983,2.814-0.285c2.46,2.009,5.159,3.715,8.022,5.071
		c0.998,0.474,1.424,1.666,0.951,2.664C35.284,89.067,34.566,89.489,33.817,89.489z"/>
	<path style="display:inline;" d="M80.174,81.807c-0.522,0-1.044-0.203-1.437-0.608c-0.769-0.793-0.749-2.059,0.045-2.828
		c2.281-2.212,4.29-4.693,5.97-7.376c0.587-0.937,1.819-1.219,2.757-0.634c0.937,0.586,1.22,1.82,0.634,2.757
		c-1.851,2.955-4.063,5.689-6.577,8.126C81.178,81.619,80.676,81.807,80.174,81.807z"/>
	<path style="display:inline;" d="M18.477,76.969c-0.607,0-1.206-0.275-1.599-0.797c-2.106-2.798-3.867-5.844-5.235-9.054
		c-0.433-1.017,0.04-2.191,1.056-2.624c1.016-0.436,2.19,0.041,2.624,1.056c1.241,2.913,2.839,5.677,4.75,8.216
		c0.665,0.883,0.488,2.137-0.395,2.801C19.318,76.838,18.896,76.969,18.477,76.969z"/>
	<path style="display:inline;" d="M90.682,65.028c-0.206,0-0.416-0.032-0.622-0.101c-1.05-0.344-1.622-1.473-1.278-2.522
		c0.983-3.006,1.601-6.138,1.833-9.308c0.082-1.102,1.033-1.938,2.142-1.848c1.102,0.08,1.929,1.039,1.849,2.141
		c-0.257,3.493-0.938,6.945-2.022,10.259C92.307,64.492,91.523,65.028,90.682,65.028z"/>
	<path style="display:inline;" d="M10.715,58.749c-0.965,0-1.814-0.699-1.972-1.683c-0.366-2.273-0.551-4.593-0.551-6.894
		c0-1.181,0.048-2.376,0.143-3.553c0.089-1.1,1.046-1.917,2.156-1.832c1.101,0.09,1.921,1.055,1.832,2.156
		c-0.087,1.069-0.131,2.155-0.13,3.228c0,2.09,0.168,4.195,0.5,6.26c0.175,1.091-0.566,2.117-1.657,2.292
		C10.928,58.741,10.821,58.749,10.715,58.749z"/>
	<path style="display:inline;" d="M92.147,45.28c-0.959,0-1.807-0.692-1.971-1.669c-0.525-3.126-1.434-6.188-2.699-9.097
		c-0.44-1.013,0.023-2.191,1.036-2.632c1.011-0.441,2.191,0.023,2.632,1.036c1.396,3.208,2.396,6.583,2.977,10.03
		c0.183,1.089-0.552,2.121-1.642,2.304C92.369,45.271,92.257,45.28,92.147,45.28z"/>
	<path style="display:inline;" d="M12.334,39.015c-0.211,0-0.426-0.034-0.637-0.104c-1.047-0.352-1.61-1.486-1.259-2.533
		c1.112-3.308,2.63-6.482,4.513-9.435c0.594-0.931,1.83-1.205,2.762-0.611c0.931,0.594,1.205,1.831,0.611,2.762
		c-1.708,2.679-3.086,5.559-4.094,8.559C13.949,38.487,13.17,39.015,12.334,39.015z"/>
	<path style="display:inline;" d="M84.251,27.12c-0.601,0-1.195-0.27-1.59-0.785c-1.927-2.519-4.158-4.804-6.634-6.792
		c-0.86-0.691-0.998-1.95-0.307-2.812c0.693-0.861,1.95-0.999,2.812-0.307c2.725,2.189,5.183,4.706,7.306,7.479
		c0.671,0.877,0.504,2.133-0.374,2.804C85.103,26.986,84.676,27.12,84.251,27.12z"/>
	<path style="display:inline;" d="M22.973,22.315c-0.528,0-1.054-0.208-1.447-0.619c-0.763-0.799-0.733-2.065,0.066-2.828
		c2.531-2.416,5.35-4.521,8.378-6.256c0.959-0.55,2.181-0.217,2.73,0.741c0.549,0.958,0.217,2.181-0.741,2.73
		c-2.749,1.575-5.308,3.486-7.606,5.679C23.966,22.131,23.469,22.315,22.973,22.315z"/>
	<path style="display:inline;" d="M69.39,14.999c-0.292,0-0.589-0.064-0.869-0.2c-2.856-1.38-5.879-2.41-8.982-3.059
		c-1.081-0.226-1.773-1.286-1.548-2.367c0.228-1.081,1.284-1.774,2.368-1.548c3.421,0.716,6.753,1.851,9.902,3.373
		c0.994,0.48,1.411,1.676,0.931,2.671C70.847,14.583,70.133,14.999,69.39,14.999z"/>
	<path style="display:inline;" d="M40.157,12.474c-0.872,0-1.673-0.574-1.923-1.454c-0.302-1.062,0.315-2.168,1.377-2.47
		c3.35-0.952,6.825-1.496,10.33-1.616c1.103-0.033,2.03,0.826,2.068,1.93s-0.826,2.03-1.93,2.068
		c-3.182,0.109-6.335,0.603-9.375,1.466C40.521,12.449,40.337,12.474,40.157,12.474z"/>
	<path style="display:inline;" d="M87.819,40.859L62.79,14.107c-0.778-0.832-1.844-1.267-2.923-1.267
		c-0.7,0-1.405,0.183-2.041,0.561L16.576,37.897c-1.317,0.782-2.071,2.247-1.944,3.772l1.851,22.153
		c0.136,1.623,1.242,3.002,2.797,3.486l48.799,15.19c0.394,0.123,0.795,0.181,1.189,0.181c1.543,0,2.996-0.898,3.654-2.373
		l15.63-35.087C89.206,43.751,88.917,42.033,87.819,40.859z"/>
</g>
<g id="turf-merge" style="display:none;">
	<path style="display:inline;" d="M76.111,36.407l3.838-16.94c0.228-1-0.34-2.01-1.312-2.337L38.462,3.613
		c-0.669-0.226-1.41-0.08-1.946,0.382L8.109,28.552c-0.502,0.435-0.756,1.089-0.678,1.749l4.7,39.609
		c0.111,0.936,0.859,1.667,1.797,1.756l14.745,1.396c3.583,14.489,16.717,24.855,31.784,24.855
		c18.056,0,32.744-14.689,32.744-32.744C93.202,53.224,86.544,42.104,76.111,36.407z M52.686,33.356
		c2.948-0.718,6.031-1.022,9.073-0.903c1.104,0.042,1.964,0.972,1.921,2.075c-0.042,1.104-0.924,1.975-2.075,1.922
		c-2.672-0.102-5.383,0.162-7.972,0.792c-0.159,0.039-0.318,0.057-0.476,0.057c-0.9,0-1.719-0.613-1.941-1.527
		C50.955,34.7,51.612,33.618,52.686,33.356z M28.449,58.242c0.644-2.986,1.705-5.867,3.155-8.563
		c0.523-0.973,1.736-1.338,2.708-0.814c0.973,0.523,1.337,1.736,0.814,2.709c-1.272,2.364-2.203,4.892-2.768,7.51
		c-0.202,0.938-1.031,1.579-1.953,1.579c-0.14,0-0.281-0.015-0.423-0.045C28.903,60.386,28.216,59.321,28.449,58.242z
		 M34.293,73.584c-0.063,0-0.127-0.003-0.191-0.009l-3.982-0.377c-0.879-0.083-1.6-0.734-1.773-1.601
		c-0.277-1.389-0.465-2.808-0.561-4.22c-0.074-1.103,0.759-2.056,1.861-2.13c1.114-0.096,2.056,0.76,2.13,1.86
		c0.05,0.751,0.131,1.504,0.241,2.252l2.46,0.232c1.1,0.104,1.907,1.08,1.803,2.18C36.184,72.808,35.313,73.584,34.293,73.584z
		 M38.434,45.721c-0.503,0-1.007-0.189-1.396-0.568c-0.791-0.771-0.807-2.037-0.036-2.828c2.136-2.191,4.561-4.071,7.209-5.587
		c0.958-0.549,2.181-0.217,2.729,0.742c0.549,0.958,0.217,2.18-0.742,2.729c-2.325,1.332-4.456,2.983-6.332,4.908
		C39.474,45.519,38.954,45.721,38.434,45.721z M52.393,75.297c-0.062,0-0.126-0.003-0.19-0.009l-9.05-0.856
		c-1.1-0.104-1.907-1.08-1.803-2.18s1.081-1.903,2.18-1.803l9.05,0.856c1.1,0.104,1.906,1.08,1.803,2.18
		C54.284,74.521,53.412,75.297,52.393,75.297z M68.257,71.071l-0.884,3.9c-0.208,0.918-1.023,1.558-1.948,1.558
		c-0.063,0-0.126-0.003-0.189-0.009l-3.982-0.376c-1.101-0.104-1.907-1.079-1.804-2.179s1.074-1.91,2.179-1.804l2.232,0.211
		l0.496-2.187c0.244-1.076,1.312-1.756,2.393-1.508C67.826,68.923,68.501,69.993,68.257,71.071z M72.676,51.57l-2.21,9.75
		c-0.21,0.928-1.035,1.558-1.948,1.558c-0.146,0-0.295-0.016-0.444-0.05c-1.077-0.244-1.752-1.315-1.508-2.393l2.21-9.75
		c0.243-1.078,1.312-1.751,2.393-1.509C72.245,49.421,72.92,50.493,72.676,51.57z M75.769,37.918l-0.884,3.901
		c-0.21,0.928-1.035,1.559-1.948,1.559c-0.146,0-0.295-0.016-0.443-0.05c-1.078-0.244-1.753-1.315-1.509-2.393l0.522-2.306
		c-0.665-0.277-1.341-0.53-2.021-0.754c-1.049-0.347-1.618-1.479-1.271-2.527c0.346-1.048,1.479-1.617,2.526-1.271
		c1.343,0.444,2.67,0.982,3.945,1.598C75.526,36.08,75.975,37.01,75.769,37.918z"/>
</g>
<g id="turf-intersect" style="display:none;">
	<path style="display:inline;stroke:#000000;stroke-miterlimit:10;" d="M113.25,78.75"/>
	
		<path style="display:inline;fill:none;stroke:#000000;stroke-width:4;stroke-linecap:round;stroke-linejoin:round;stroke-miterlimit:10;" d="
		M73.818,37.476L65.423,74.53l-35.114-3.323c2.805,14.09,15.235,24.71,30.149,24.71c16.98,0,30.744-13.765,30.744-30.744
		C91.202,52.981,84.105,42.448,73.818,37.476z"/>
	
		<path style="display:inline;fill:none;stroke:#000000;stroke-width:4;stroke-linecap:round;stroke-linejoin:round;stroke-miterlimit:10;" d="
		M60.458,34.428c4.788,0,9.32,1.095,13.361,3.048l4.181-18.451L37.825,5.509L9.417,30.065l4.701,39.609l16.192,1.532
		c-0.388-1.952-0.596-3.969-0.596-6.034C29.713,48.193,43.478,34.428,60.458,34.428z"/>
	<path style="display:inline;stroke:#000000;stroke-width:4;stroke-linecap:round;stroke-linejoin:round;stroke-miterlimit:10;" d="
		M73.818,37.476c-4.04-1.953-8.572-3.048-13.361-3.048c-16.98,0-30.744,13.765-30.744,30.744c0,2.066,0.207,4.083,0.596,6.034
		l35.114,3.323L73.818,37.476z"/>
</g>
<g id="turf-erased_1_" style="display:none;">
	<path style="display:inline;" d="M76.107,36.425l3.842-16.958c0.228-1-0.34-2.01-1.312-2.337L38.462,3.613
		c-0.669-0.226-1.41-0.08-1.946,0.382L8.109,28.552c-0.502,0.435-0.756,1.089-0.678,1.749l4.7,39.609
		c0.111,0.936,0.859,1.667,1.797,1.756l14.747,1.395c3.584,14.489,16.715,24.856,31.783,24.856
		c18.056,0,32.744-14.689,32.744-32.744C93.202,53.226,86.537,42.123,76.107,36.425z M60.458,93.917
		c-12.749,0-23.916-8.453-27.524-20.452l0.671,0.064c0.064,0.006,0.127,0.009,0.191,0.009c1.02,0,1.891-0.776,1.989-1.812
		c0.104-1.1-0.703-2.075-1.803-2.18l-1.961-0.185c-0.009-0.06-0.014-0.12-0.022-0.179c-0.066-0.47-0.12-0.941-0.163-1.411
		c-0.078-0.865-0.122-1.732-0.122-2.597c0-15.85,12.895-28.745,28.745-28.745c3.266,0,6.436,0.535,9.46,1.592
		c0.004,0.001,0.007,0.004,0.011,0.005c0.526,0.183,1.052,0.385,1.573,0.601c0.002,0.001,0.004,0.002,0.005,0.003l-0.412,1.818
		c-0.244,1.077,0.431,2.148,1.508,2.393c0.149,0.034,0.298,0.05,0.444,0.05c0.913,0,1.738-0.63,1.948-1.559l0.189-0.832
		c8.586,5.149,14.018,14.568,14.018,24.673C89.202,81.022,76.308,93.917,60.458,93.917z"/>
	<path style="display:inline;" d="M56.312,75.667c-0.062,0-0.126-0.003-0.19-0.009l-5.629-0.532c-1.1-0.104-1.907-1.08-1.803-2.18
		c0.104-1.099,1.067-1.909,2.18-1.803l5.629,0.532c1.1,0.104,1.906,1.08,1.803,2.18C58.203,74.891,57.332,75.667,56.312,75.667z
		 M45.054,74.602c-0.063,0-0.126-0.003-0.191-0.009l-5.629-0.532c-1.1-0.104-1.907-1.08-1.803-2.18s1.072-1.909,2.18-1.803
		l5.629,0.532c1.1,0.104,1.907,1.08,1.803,2.18C46.944,73.825,46.073,74.602,45.054,74.602z"/>
	<path style="display:inline;" d="M65.425,76.529c-0.063,0-0.126-0.003-0.19-0.009l-3.484-0.329c-1.1-0.104-1.906-1.08-1.803-2.18
		c0.104-1.099,1.059-1.905,2.18-1.803l1.733,0.164l0.386-1.699c0.244-1.076,1.313-1.756,2.393-1.508
		c1.077,0.244,1.752,1.315,1.508,2.393l-0.773,3.413C67.165,75.89,66.35,76.529,65.425,76.529z"/>
	<path style="display:inline;" d="M67.567,67.071c-0.146,0-0.295-0.016-0.444-0.05c-1.077-0.244-1.752-1.315-1.508-2.393l1.37-6.045
		c0.243-1.076,1.312-1.756,2.393-1.508c1.077,0.244,1.752,1.315,1.508,2.393l-1.37,6.045C69.306,66.441,68.48,67.071,67.567,67.071z
		 M70.308,54.98c-0.146,0-0.295-0.016-0.444-0.05c-1.077-0.244-1.752-1.315-1.508-2.393l1.37-6.044
		c0.244-1.078,1.312-1.751,2.393-1.509c1.077,0.244,1.752,1.315,1.508,2.393l-1.37,6.045C72.046,54.351,71.221,54.98,70.308,54.98z"
		/>
</g>
<g id="turf-convex" style="display:none;">
	<g style="display:inline;">
		<path d="M22.425,47.647c-0.628,0-1.256-0.235-1.742-0.707c-0.99-0.962-1.013-2.544-0.051-3.535l6.476-6.666
			c0.96-0.991,2.544-1.014,3.535-0.051c0.99,0.962,1.013,2.544,0.051,3.535l-6.476,6.666C23.729,47.394,23.077,47.647,22.425,47.647
			z M35.377,34.314c-0.628,0-1.256-0.235-1.742-0.707c-0.99-0.962-1.013-2.544-0.051-3.535l6.476-6.667
			c0.961-0.992,2.544-1.013,3.535-0.051c0.99,0.962,1.013,2.544,0.051,3.535l-6.476,6.667C36.68,34.061,36.029,34.314,35.377,34.314
			z"/>
		<path d="M76.742,81.856c-0.301,0-0.606-0.055-0.903-0.17l-7.481-2.903c-1.287-0.5-1.926-1.948-1.427-3.235
			c0.5-1.288,1.949-1.926,3.235-1.427l7.481,2.903c1.287,0.5,1.926,1.948,1.427,3.235C78.689,81.25,77.744,81.856,76.742,81.856z
			 M61.779,76.05c-0.301,0-0.606-0.055-0.903-0.17l-7.481-2.903c-1.287-0.5-1.926-1.948-1.427-3.235
			c0.5-1.288,1.948-1.927,3.235-1.427l7.481,2.903c1.287,0.5,1.926,1.948,1.427,3.235C63.727,75.443,62.781,76.05,61.779,76.05z
			 M46.817,70.243c-0.298,0-0.601-0.054-0.896-0.167l-7.49-2.905c-1.287-0.5-1.926-1.948-1.426-3.235
			c0.499-1.288,1.948-1.925,3.235-1.427l7.474,2.899c1.289,0.495,1.933,1.941,1.438,3.23C48.77,69.633,47.822,70.243,46.817,70.243z
			 M31.854,64.438c-0.301,0-0.606-0.055-0.904-0.17l-7.481-2.903c-1.287-0.5-1.926-1.948-1.426-3.235s1.947-1.926,3.235-1.427
			l7.481,2.903c1.287,0.5,1.926,1.948,1.426,3.235C33.8,63.831,32.855,64.438,31.854,64.438z"/>
		<path d="M78.562,77.921c-0.588,0-1.178-0.206-1.653-0.625l-6.391-5.639c-1.035-0.914-1.134-2.494-0.221-3.529
			c0.914-1.035,2.493-1.133,3.529-0.221l6.391,5.639c1.035,0.914,1.134,2.494,0.221,3.529
			C79.944,77.635,79.255,77.921,78.562,77.921z M65.78,66.643c-0.588,0-1.178-0.206-1.653-0.625l-6.391-5.639
			c-1.035-0.914-1.134-2.494-0.221-3.529c0.913-1.034,2.493-1.133,3.529-0.221l6.391,5.639c1.035,0.914,1.134,2.494,0.221,3.529
			C67.162,66.356,66.473,66.643,65.78,66.643z"/>
		<path d="M50.417,39.85c-0.027,0-0.055,0-0.082-0.001c-1.38-0.044-2.463-1.199-2.418-2.579l0.286-8.87
			c0.045-1.38,1.213-2.456,2.579-2.418c1.38,0.044,2.462,1.199,2.418,2.579l-0.286,8.87C52.87,38.783,51.76,39.85,50.417,39.85z"/>
	</g>
	<circle style="display:inline;" cx="13.162" cy="54.683" r="5.824"/>
	<circle style="display:inline;" cx="51.116" cy="15.612" r="5.824"/>
	<circle style="display:inline;" cx="87.954" cy="83.706" r="5.824"/>
	<circle style="display:inline;" cx="50" cy="50.218" r="5.824"/>
</g>
<g id="turf-concave" style="display:none;">
	<circle style="display:inline;" cx="50" cy="50.218" r="5.824"/>
	<path style="display:inline;" d="M22.425,47.647c-0.628,0-1.256-0.235-1.742-0.707c-0.99-0.962-1.013-2.544-0.051-3.535
		l6.476-6.666c0.96-0.991,2.544-1.014,3.535-0.051c0.99,0.962,1.013,2.544,0.051,3.535l-6.476,6.666
		C23.729,47.394,23.077,47.647,22.425,47.647z M35.377,34.314c-0.628,0-1.256-0.235-1.742-0.707
		c-0.99-0.962-1.013-2.544-0.051-3.535l6.476-6.667c0.961-0.992,2.544-1.013,3.535-0.051c0.99,0.962,1.013,2.544,0.051,3.535
		l-6.476,6.667C36.68,34.061,36.029,34.314,35.377,34.314z"/>
	<path style="display:inline;" d="M76.742,81.856c-0.301,0-0.606-0.055-0.903-0.17l-7.481-2.903c-1.287-0.5-1.926-1.948-1.427-3.235
		c0.5-1.288,1.949-1.926,3.235-1.427l7.481,2.903c1.287,0.5,1.926,1.948,1.427,3.235C78.689,81.25,77.744,81.856,76.742,81.856z
		 M61.779,76.051c-0.301,0-0.606-0.055-0.903-0.17l-7.481-2.903c-1.287-0.5-1.926-1.948-1.427-3.235
		c0.5-1.287,1.948-1.926,3.235-1.427l7.481,2.903c1.287,0.5,1.926,1.948,1.427,3.235C63.727,75.444,62.781,76.051,61.779,76.051z
		 M46.817,70.244c-0.301,0-0.606-0.055-0.904-0.17l-7.482-2.903c-1.287-0.5-1.926-1.948-1.426-3.235
		c0.499-1.288,1.948-1.925,3.235-1.427l7.482,2.903c1.287,0.5,1.926,1.948,1.426,3.235C48.764,69.638,47.818,70.244,46.817,70.244z
		 M31.854,64.438c-0.301,0-0.606-0.055-0.904-0.17l-7.481-2.903c-1.287-0.5-1.926-1.948-1.426-3.235s1.947-1.926,3.235-1.427
		l7.481,2.903c1.287,0.5,1.926,1.948,1.426,3.235C33.8,63.831,32.855,64.438,31.854,64.438z"/>
	<path style="display:inline;" d="M82.383,75.904c-0.889,0-1.748-0.475-2.201-1.311l-3.67-6.784
		c-0.656-1.215-0.205-2.731,1.01-3.389c1.214-0.655,2.729-0.205,3.389,1.01l3.67,6.784c0.656,1.215,0.205,2.731-1.01,3.389
		C83.192,75.808,82.785,75.904,82.383,75.904z M75.043,62.336c-0.888,0-1.748-0.474-2.201-1.311l-3.671-6.784
		c-0.656-1.214-0.205-2.731,1.01-3.388c1.211-0.656,2.73-0.207,3.389,1.009l3.671,6.784c0.656,1.214,0.205,2.731-1.01,3.389
		C75.853,62.239,75.445,62.336,75.043,62.336z M67.702,48.768c-0.889,0-1.748-0.475-2.201-1.311l-3.67-6.784
		c-0.656-1.214-0.205-2.731,1.01-3.388c1.212-0.657,2.729-0.206,3.389,1.009l3.67,6.784c0.656,1.214,0.205,2.731-1.01,3.388
		C68.512,48.671,68.104,48.768,67.702,48.768z M60.362,35.2c-0.888,0-1.748-0.475-2.201-1.311l-3.671-6.784
		c-0.656-1.214-0.205-2.731,1.01-3.389c1.211-0.656,2.73-0.206,3.389,1.009l3.671,6.784c0.656,1.214,0.205,2.731-1.01,3.389
		C61.172,35.103,60.765,35.2,60.362,35.2z"/>
	<circle style="display:inline;" cx="13.162" cy="54.683" r="5.824"/>
	<path style="display:inline;" d="M13.162,48.859c3.217,0,5.824,2.608,5.824,5.824s-2.608,5.824-5.824,5.824
		s-5.824-2.608-5.824-5.824S9.946,48.859,13.162,48.859"/>
	<circle style="display:inline;" cx="51.116" cy="15.612" r="5.824"/>
	<circle style="display:inline;" cx="87.954" cy="83.706" r="5.824"/>
</g>
<g id="turf-buffer_1_" style="display:none;">
	<path style="display:inline;" d="M26.422,99h-0.063c-2.205,0-4.384-0.496-6.475-1.25c-0.806-0.291-1.595-0.693-2.345-1.085
		c-1.224-0.639-1.699-2.177-1.061-3.401c0.638-1.224,2.149-1.713,3.373-1.075c0.553,0.288,1.135,0.537,1.732,0.752
		c1.545,0.558,3.152,0.837,4.777,0.837c1.381,0,2.532,1.23,2.532,2.611S27.803,99,26.422,99z M34.081,96.862
		c-0.898,0-1.766-0.486-2.214-1.336c-0.644-1.222-0.175-2.733,1.047-3.377c2.003-1.055,3.737-2.591,5.014-4.441
		c0.784-1.137,2.339-1.422,3.478-0.638c1.136,0.784,1.422,2.341,0.638,3.478c-1.733,2.512-4.084,4.596-6.799,6.025
		C34.872,96.769,34.474,96.862,34.081,96.862z M12.774,91.677c-0.792,0-1.569-0.374-2.055-1.073
		c-1.747-2.512-2.876-5.441-3.266-8.471c-0.176-1.369,0.791-2.622,2.16-2.799c1.374-0.175,2.623,0.792,2.799,2.16
		c0.288,2.236,1.123,4.399,2.413,6.256c0.788,1.134,0.508,2.691-0.626,3.479C13.764,91.532,13.267,91.677,12.774,91.677z
		 M43.189,84.362c-0.282,0-0.569-0.049-0.85-0.149c-1.298-0.47-1.971-1.902-1.501-3.201l2.708-7.495
		c0.469-1.298,1.902-1.967,3.201-1.502c1.298,0.47,1.971,1.902,1.501,3.201l-2.708,7.495C45.172,83.729,44.212,84.362,43.189,84.362
		z M10.828,76.474c-0.282,0-0.569-0.049-0.85-0.149c-1.298-0.47-1.971-1.902-1.501-3.201l2.708-7.495
		c0.469-1.298,1.902-1.967,3.201-1.502c1.298,0.47,1.971,1.902,1.501,3.201l-2.708,7.495C12.811,75.84,11.851,76.474,10.828,76.474z
		 M48.605,69.372c-0.282,0-0.569-0.049-0.85-0.149c-1.298-0.47-1.971-1.902-1.501-3.201l2.708-7.495
		c0.469-1.298,1.904-1.967,3.201-1.502c1.299,0.47,1.971,1.902,1.502,3.201l-2.709,7.495C50.588,68.738,49.628,69.372,48.605,69.372
		z M16.244,61.483c-0.282,0-0.569-0.049-0.85-0.149c-1.298-0.47-1.971-1.902-1.501-3.201l2.708-7.495
		c0.469-1.299,1.902-1.97,3.201-1.501c1.298,0.469,1.971,1.902,1.501,3.201l-2.708,7.495C18.228,60.85,17.267,61.483,16.244,61.483z
		 M54.699,54.954c-0.876,0-1.726-0.461-2.184-1.279c-0.674-1.205-0.244-2.729,0.961-3.403l6.955-3.89
		c1.207-0.674,2.729-0.243,3.402,0.962c0.674,1.205,0.244,2.728-0.961,3.402l-6.955,3.89C55.531,54.852,55.112,54.954,54.699,54.954
		z M68.609,47.174c-0.876,0-1.726-0.461-2.184-1.28c-0.674-1.205-0.244-2.729,0.961-3.402l6.955-3.891
		c1.207-0.675,2.729-0.244,3.402,0.961s0.244,2.729-0.961,3.402l-6.955,3.891C69.441,47.072,69.022,47.174,68.609,47.174z
		 M21.661,46.493c-0.282,0-0.569-0.048-0.85-0.149c-1.298-0.469-1.971-1.902-1.501-3.201l2.708-7.495
		c0.469-1.299,1.903-1.972,3.201-1.501c1.298,0.469,1.971,1.902,1.501,3.201l-2.708,7.495C23.644,45.86,22.684,46.493,21.661,46.493
		z M82.521,39.394c-0.876,0-1.726-0.461-2.184-1.28c-0.674-1.205-0.244-2.729,0.961-3.402l3.437-1.922
		c1.002-0.561,1.93-1.238,2.759-2.014c1.007-0.946,2.59-0.893,3.533,0.115c0.944,1.008,0.893,2.59-0.115,3.534
		c-1.124,1.053-2.381,1.972-3.736,2.729l-3.436,1.922C83.353,39.291,82.934,39.394,82.521,39.394z M28.542,32.297
		c-0.649,0-1.298-0.251-1.788-0.752c-0.965-0.987-0.947-2.57,0.04-3.536c1.201-1.174,2.554-2.186,4.021-3.005l3.138-1.755
		c1.203-0.675,2.728-0.244,3.402,0.961s0.244,2.728-0.961,3.402l-3.138,1.755c-1.082,0.605-2.08,1.351-2.965,2.217
		C29.804,32.06,29.173,32.297,28.542,32.297z M93.503,28.485c-0.273,0-0.551-0.045-0.824-0.14c-1.303-0.455-1.991-1.88-1.536-3.184
		c0.524-1.504,0.791-3.071,0.791-4.656c0-0.673-0.049-1.351-0.146-2.015c-0.199-1.366,0.747-2.635,2.113-2.834
		c1.364-0.193,2.636,0.748,2.834,2.114c0.132,0.902,0.198,1.822,0.198,2.736c0,2.148-0.36,4.269-1.07,6.304
		C95.504,27.839,94.536,28.485,93.503,28.485z M42.131,24.041c-0.876,0-1.726-0.461-2.185-1.28
		c-0.674-1.205-0.243-2.728,0.962-3.402l6.955-3.89c1.204-0.673,2.728-0.243,3.402,0.962s0.244,2.728-0.961,3.402l-6.955,3.89
		C42.963,23.938,42.544,24.041,42.131,24.041z M56.041,16.26c-0.876,0-1.726-0.461-2.184-1.28c-0.674-1.205-0.244-2.728,0.961-3.402
		l6.955-3.89c1.208-0.674,2.729-0.243,3.402,0.962s0.244,2.728-0.961,3.402l-6.955,3.89C56.873,16.158,56.454,16.26,56.041,16.26z
		 M91.293,13.316c-0.775,0-1.54-0.36-2.029-1.037c-1.319-1.828-3.084-3.327-5.104-4.333c-1.235-0.616-1.737-2.118-1.121-3.353
		c0.616-1.237,2.118-1.738,3.354-1.122c2.74,1.367,5.135,3.401,6.926,5.882c0.808,1.12,0.556,2.682-0.564,3.49
		C92.312,13.163,91.8,13.316,91.293,13.316z M69.952,8.48c-0.886,0-1.743-0.471-2.197-1.304c-0.66-1.212-0.214-2.73,0.998-3.392
		c2.694-1.469,5.731-2.272,8.784-2.324c1.409-0.029,2.519,1.077,2.542,2.458c0.022,1.38-1.077,2.519-2.458,2.542
		c-2.28,0.039-4.458,0.615-6.474,1.714C70.767,8.382,70.356,8.48,69.952,8.48z"/>
	<path style="display:inline;" d="M26.359,82.213c-0.282,0-0.569-0.049-0.85-0.149c-1.298-0.47-1.971-1.902-1.501-3.201
		l14.075-38.952l38.569-21.573c1.206-0.674,2.728-0.244,3.402,0.962c0.674,1.205,0.244,2.728-0.961,3.402L42.152,43.364
		L28.71,80.562C28.343,81.579,27.383,82.213,26.359,82.213z"/>
</g>
<g id="turf-bezzier_1_" style="display:none;">
	<circle style="display:inline;" cx="40.274" cy="39.666" r="4.763"/>
	<path style="display:inline;" d="M12.729,63.898l-5.714,5.6c-0.789,0.773-0.802,2.04-0.028,2.828c0.392,0.4,0.91,0.601,1.428,0.601
		c0.505,0,1.011-0.19,1.4-0.571l5.714-5.6c0.789-0.773,0.802-2.04,0.028-2.828C14.784,63.137,13.518,63.127,12.729,63.898z"/>
	<path style="display:inline;" d="M24.156,52.699l-5.714,5.6c-0.789,0.773-0.802,2.04-0.028,2.828c0.392,0.4,0.91,0.601,1.428,0.601
		c0.505,0,1.011-0.19,1.4-0.571l5.714-5.6c0.789-0.773,0.802-2.04,0.028-2.828C26.212,51.938,24.945,51.928,24.156,52.699z"/>
	<path style="display:inline;" d="M47.017,35.834c0.048-0.027,0.097-0.053,0.145-0.08l2.648-2.595
		c0.789-0.773,0.802-2.039,0.028-2.828c-0.773-0.789-2.039-0.802-2.828-0.028l-2.762,2.707
		C45.396,33.698,46.353,34.67,47.017,35.834z"/>
	<path style="display:inline;" d="M54.124,28.131c0.505,0,1.011-0.19,1.399-0.571l5.714-5.599c0.789-0.773,0.802-2.04,0.029-2.829
		c-0.773-0.79-2.041-0.802-2.828-0.029l-5.714,5.599c-0.789,0.773-0.802,2.04-0.029,2.829C53.087,27.93,53.605,28.131,54.124,28.131
		z"/>
	<path style="display:inline;" d="M65.552,16.932c0.505,0,1.011-0.19,1.399-0.572l5.714-5.6c0.789-0.773,0.802-2.039,0.029-2.828
		c-0.772-0.788-2.041-0.802-2.828-0.028l-5.714,5.6c-0.789,0.773-0.802,2.039-0.029,2.828
		C64.515,16.731,65.033,16.932,65.552,16.932z"/>
	<path style="display:inline;" d="M92.917,42.969C80.419,30.471,61.223,27.94,47.162,35.754l-0.121,0.119
		c0.632,1.123,0.997,2.415,0.997,3.793c0,0.072-0.009,0.142-0.011,0.214c12.618-7.75,30.503-5.642,42.062,5.916
		c0.781,0.781,2.047,0.781,2.828,0C93.698,45.016,93.698,43.75,92.917,42.969z"/>
	<path style="display:inline;" d="M47.041,35.873l0.121-0.119c-0.048,0.027-0.097,0.053-0.145,0.08
		C47.025,35.847,47.033,35.86,47.041,35.873z"/>
	<path style="display:inline;" d="M42.688,90.66c-6.166-6.166-9.561-14.437-9.561-23.29c0-7.347,2.346-14.29,6.666-19.965
		c-1.252-0.077-2.422-0.45-3.445-1.053c-0.172-0.101-0.342-0.206-0.505-0.32c-0.944-0.659-1.733-1.522-2.307-2.525L29.87,47.1
		c-0.789,0.773-0.802,2.04-0.029,2.829c0.392,0.399,0.91,0.6,1.429,0.6c0.505,0,1.011-0.19,1.4-0.571l1.672-1.638
		c-3.398,5.669-5.214,12.206-5.214,19.051c0,9.922,3.812,19.197,10.733,26.118c0.39,0.391,0.902,0.586,1.414,0.586
		s1.024-0.195,1.414-0.586C43.47,92.707,43.47,91.441,42.688,90.66z"/>
	<path style="display:inline;" d="M42.097,39.228c0.196,0.062,0.397,0.102,0.6,0.102c0.505,0,1.011-0.19,1.4-0.572l0.659-0.646
		c-0.081-0.235-0.181-0.458-0.296-0.674C43.649,37.996,42.862,38.594,42.097,39.228z"/>
</g>
<g id="_x2D_TEMPLATE-polygon" style="display:none;">
	<path style="display:inline;fill:none;stroke:#000000;stroke-width:4;stroke-linejoin:round;stroke-miterlimit:10;" d="
		M65.423,74.53"/>
	
		<path style="display:inline;fill:none;stroke:#000000;stroke-width:4;stroke-linecap:round;stroke-linejoin:round;stroke-miterlimit:10;" d="
		M73.818,37.476c-4.04-1.953-8.572-3.048-13.361-3.048c-16.98,0-30.744,13.765-30.744,30.744c0,2.066,0.207,4.083,0.596,6.034
		c2.805,14.09,15.235,24.71,30.149,24.71c16.98,0,30.744-13.765,30.744-30.744C91.202,52.981,84.105,42.448,73.818,37.476z"/>
	
		<polygon style="display:inline;fill:none;stroke:#000000;stroke-width:4;stroke-linecap:round;stroke-linejoin:round;stroke-miterlimit:10;" points="
		37.825,5.509 9.417,30.065 14.117,69.675 30.309,71.207 65.423,74.53 73.818,37.476 77.999,19.025 	"/>
</g>
</svg>
