<?xml version="1.0" encoding="iso-8859-1"?>
<!-- Generator: Adobe Illustrator 18.1.1, SVG Export Plug-In . SVG Version: 6.00 Build 0)  -->
<svg version="1.1" xmlns="http://www.w3.org/2000/svg" xmlns:xlink="http://www.w3.org/1999/xlink" x="0px" y="0px"
	 viewBox="0 0 100 100" style="enable-background:new 0 0 100 100;" xml:space="preserve">
<g id="turf-bezzier">
	<path d="M82.69,63.538c-1.116,0-2.133-0.753-2.421-1.885c-0.473-1.855-1.021-3.739-1.632-5.599
		c-0.431-1.312,0.283-2.725,1.595-3.155c1.314-0.431,2.725,0.284,3.155,1.595c0.646,1.967,1.228,3.961,1.728,5.927
		c0.341,1.338-0.468,2.698-1.807,3.039C83.103,63.513,82.895,63.538,82.69,63.538z"/>
	<path d="M20.443,58.809c-0.128,0-0.258-0.01-0.388-0.03c-1.364-0.212-2.298-1.491-2.085-2.855c0.321-2.06,0.676-4.08,1.053-6.002
		c0.266-1.355,1.578-2.241,2.934-1.972c1.355,0.266,2.238,1.579,1.972,2.934c-0.364,1.86-0.707,3.815-1.019,5.812
		C22.718,57.928,21.654,58.809,20.443,58.809z"/>
	<path d="M78.955,52.136c-0.99,0-1.928-0.593-2.32-1.568c-0.728-1.808-1.52-3.604-2.354-5.34c-0.599-1.244-0.075-2.738,1.17-3.336
		c1.241-0.599,2.736-0.076,3.336,1.169c0.882,1.833,1.719,3.732,2.486,5.641c0.516,1.281-0.105,2.737-1.387,3.253
		C79.581,52.078,79.266,52.136,78.955,52.136z"/>
	<path d="M22.767,47.044c-0.198,0-0.399-0.023-0.601-0.073c-1.34-0.331-2.159-1.685-1.829-3.026c0.51-2.068,1.063-4.062,1.646-5.925
		c0.413-1.318,1.818-2.053,3.132-1.641c1.318,0.412,2.052,1.814,1.641,3.132c-0.552,1.767-1.078,3.661-1.564,5.631
		C24.912,46.282,23.89,47.044,22.767,47.044z"/>
	<path d="M73.753,41.327c-0.869,0-1.715-0.455-2.175-1.265c-0.974-1.711-2.003-3.376-3.059-4.946
		c-0.77-1.146-0.466-2.699,0.681-3.47c1.146-0.769,2.698-0.465,3.47,0.68c1.124,1.673,2.22,3.445,3.254,5.264
		c0.683,1.2,0.264,2.727-0.938,3.409C74.597,41.221,74.172,41.327,73.753,41.327z"/>
	<path d="M26.378,35.619c-0.312,0-0.63-0.059-0.937-0.183c-1.28-0.518-1.897-1.976-1.379-3.255c0.829-2.047,1.726-3.959,2.666-5.684
		c0.661-1.212,2.18-1.66,3.392-0.998c1.212,0.661,1.659,2.18,0.998,3.392c-0.849,1.558-1.664,3.296-2.421,5.167
		C28.303,35.029,27.367,35.619,26.378,35.619z"/>
	<path d="M67.041,31.387c-0.729,0-1.453-0.317-1.947-0.929c-1.249-1.548-2.536-2.985-3.824-4.274c-0.977-0.976-0.977-2.559,0-3.535
		c0.977-0.977,2.559-0.977,3.535,0c1.413,1.413,2.819,2.983,4.18,4.667c0.867,1.074,0.699,2.648-0.375,3.516
		C68.147,31.206,67.592,31.387,67.041,31.387z"/>
	<path d="M32.192,25.18c-0.543,0-1.09-0.176-1.55-0.54c-1.083-0.856-1.266-2.429-0.409-3.512c1.467-1.854,3.056-3.421,4.722-4.654
		c1.109-0.822,2.675-0.588,3.497,0.521c0.822,1.11,0.588,2.675-0.521,3.497c-1.312,0.971-2.583,2.229-3.777,3.738
		C33.661,24.855,32.93,25.18,32.192,25.18z"/>
	<path d="M58.521,22.969c-0.522,0-1.05-0.163-1.5-0.501c-1.565-1.177-3.138-2.144-4.673-2.873c-1.247-0.592-1.778-2.083-1.186-3.331
		c0.593-1.247,2.084-1.779,3.33-1.186c1.838,0.873,3.699,2.014,5.532,3.392c1.104,0.83,1.326,2.397,0.496,3.501
		C60.03,22.625,59.28,22.969,58.521,22.969z"/>
	<g>
		<path d="M45.823,14.332c0.92-0.064,1.801,0.368,2.298,1.143l1.259,1.962c0.425-0.39,0.732-0.917,0.82-1.525
			c0.197-1.367-0.751-2.634-2.118-2.831c-0.874-0.125-1.75-0.189-2.605-0.189c-1.434,0.024-2.924,0.187-4.327,0.556
			c-1.335,0.352-2.132,1.719-1.781,3.054c0.295,1.122,1.308,1.864,2.416,1.864c0.21,0,0.425,0.028,0.638-0.029
			c0.071-0.019,0.144-0.03,0.216-0.047l1.09-2.474C44.101,14.974,44.905,14.403,45.823,14.332z"/>
		<g>
			<path d="M18.645,71.694c-1.395-0.113-2.574,0.938-2.673,2.313c-0.141,1.957-0.265,3.97-0.371,6.039
				c-0.005,0.093,0.008,0.182,0.013,0.274l3.693-8.476C19.097,71.769,18.878,71.711,18.645,71.694z"/>
			<path d="M87.292,72.595c-0.202-2.016-0.492-4.08-0.861-6.136c-0.245-1.359-1.546-2.259-2.903-2.019
				c-1.359,0.245-2.263,1.545-2.019,2.903c0.014,0.078,0.024,0.156,0.038,0.234l4.686,7.304
				C86.948,74.38,87.385,73.526,87.292,72.595z"/>
			<g>
				<path d="M22.095,62.554c0.168-1.37-0.806-2.618-2.176-2.787c-1.375-0.163-2.618,0.807-2.787,2.176
					c-0.239,1.939-0.46,3.969-0.657,6.03c-0.131,1.375,0.876,2.596,2.25,2.727c0.081,0.008,0.162,0.012,0.241,0.012
					c0.319,0,0.626-0.061,0.909-0.172l1.781-4.089C21.795,65.125,21.94,63.816,22.095,62.554z"/>
				<path d="M87.229,76.436l-0.996-1.553c-0.34,0.238-0.736,0.404-1.178,0.449c-0.084,0.009-0.169,0.013-0.252,0.013
					c-1.269,0-2.355-0.962-2.484-2.251c-0.182-1.809-0.443-3.664-0.771-5.515L49.38,17.437c-0.531,0.487-1.252,0.756-2.011,0.648
					C46.73,17.992,46.094,18,45.476,18c-0.001,0-0.003,0-0.005,0c-0.962,0-1.912,0.073-2.831,0.29L21.657,66.45
					c-0.069,0.664-0.14,1.326-0.204,1.999c-0.093,0.97-0.728,1.757-1.577,2.09l-0.569,1.306c1.029,0.369,1.735,1.379,1.652,2.522
					c-0.139,1.924-0.261,3.901-0.365,5.936c-0.068,1.336-1.173,2.372-2.495,2.372c-0.043,0-0.086-0.001-0.13-0.003
					c-1.286-0.066-2.282-1.095-2.355-2.351l-0.805,1.847c-0.557,1.263,0.016,2.738,1.279,3.296c0.328,0.145,0.67,0.213,1.007,0.213
					c0.961,0,1.877-0.558,2.289-1.493l27.042-62.089L83.02,79.135c0.746,1.164,2.292,1.498,3.454,0.755
					C87.636,79.144,87.974,77.598,87.229,76.436z"/>
			</g>
		</g>
	</g>
</g>
<g id="Layer_1">
</g>
</svg>
