<?xml version="1.0" encoding="iso-8859-1"?>
<!-- Generator: Adobe Illustrator 18.1.1, SVG Export Plug-In . SVG Version: 6.00 Build 0)  -->
<svg version="1.1" xmlns="http://www.w3.org/2000/svg" xmlns:xlink="http://www.w3.org/1999/xlink" x="0px" y="0px"
	 viewBox="0 0 100 100" style="enable-background:new 0 0 100 100;" xml:space="preserve">
<g id="turf-concave">
	<circle cx="50" cy="50.218" r="5.824"/>
	<path d="M22.425,47.647c-0.628,0-1.256-0.235-1.742-0.707c-0.99-0.962-1.013-2.544-0.051-3.535l6.476-6.666
		c0.96-0.991,2.544-1.014,3.535-0.051c0.99,0.962,1.013,2.544,0.051,3.535l-6.476,6.666C23.729,47.394,23.077,47.647,22.425,47.647z
		 M35.377,34.314c-0.628,0-1.256-0.235-1.742-0.707c-0.99-0.962-1.013-2.544-0.051-3.535l6.476-6.667
		c0.961-0.992,2.544-1.013,3.535-0.051c0.99,0.962,1.013,2.544,0.051,3.535l-6.476,6.667C36.68,34.061,36.029,34.314,35.377,34.314z
		"/>
	<path d="M76.742,81.856c-0.301,0-0.606-0.055-0.903-0.17l-7.481-2.903c-1.287-0.5-1.926-1.948-1.427-3.235
		c0.5-1.288,1.949-1.926,3.235-1.427l7.481,2.903c1.287,0.5,1.926,1.948,1.427,3.235C78.689,81.25,77.744,81.856,76.742,81.856z
		 M61.779,76.051c-0.301,0-0.606-0.055-0.903-0.17l-7.481-2.903c-1.287-0.5-1.926-1.948-1.427-3.235
		c0.5-1.287,1.948-1.926,3.235-1.427l7.481,2.903c1.287,0.5,1.926,1.948,1.427,3.235C63.727,75.444,62.781,76.051,61.779,76.051z
		 M46.817,70.244c-0.301,0-0.606-0.055-0.904-0.17l-7.482-2.903c-1.287-0.5-1.926-1.948-1.426-3.235
		c0.499-1.288,1.948-1.925,3.235-1.427l7.482,2.903c1.287,0.5,1.926,1.948,1.426,3.235C48.764,69.638,47.818,70.244,46.817,70.244z
		 M31.854,64.438c-0.301,0-0.606-0.055-0.904-0.17l-7.481-2.903c-1.287-0.5-1.926-1.948-1.426-3.235s1.947-1.926,3.235-1.427
		l7.481,2.903c1.287,0.5,1.926,1.948,1.426,3.235C33.8,63.831,32.855,64.438,31.854,64.438z"/>
	<path d="M82.383,75.904c-0.889,0-1.748-0.475-2.201-1.311l-3.67-6.784c-0.656-1.215-0.205-2.731,1.01-3.389
		c1.214-0.655,2.729-0.205,3.389,1.01l3.67,6.784c0.656,1.215,0.205,2.731-1.01,3.389C83.192,75.808,82.785,75.904,82.383,75.904z
		 M75.043,62.336c-0.888,0-1.748-0.474-2.201-1.311l-3.671-6.784c-0.656-1.214-0.205-2.731,1.01-3.388
		c1.211-0.656,2.73-0.207,3.389,1.009l3.671,6.784c0.656,1.214,0.205,2.731-1.01,3.389C75.853,62.239,75.445,62.336,75.043,62.336z
		 M67.702,48.768c-0.889,0-1.748-0.475-2.201-1.311l-3.67-6.784c-0.656-1.214-0.205-2.731,1.01-3.388
		c1.212-0.657,2.729-0.206,3.389,1.009l3.67,6.784c0.656,1.214,0.205,2.731-1.01,3.388C68.512,48.671,68.104,48.768,67.702,48.768z
		 M60.362,35.2c-0.888,0-1.748-0.475-2.201-1.311l-3.671-6.784c-0.656-1.214-0.205-2.731,1.01-3.389
		c1.211-0.656,2.73-0.206,3.389,1.009l3.671,6.784c0.656,1.214,0.205,2.731-1.01,3.389C61.172,35.103,60.765,35.2,60.362,35.2z"/>
	<circle cx="13.162" cy="54.683" r="5.824"/>
	<path d="M13.162,48.859c3.217,0,5.824,2.608,5.824,5.824s-2.608,5.824-5.824,5.824s-5.824-2.608-5.824-5.824
		S9.946,48.859,13.162,48.859"/>
	<circle cx="51.116" cy="15.612" r="5.824"/>
	<circle cx="87.954" cy="83.706" r="5.824"/>
</g>
<g id="Layer_1">
</g>
</svg>
