<?xml version="1.0" encoding="iso-8859-1"?>
<!-- Generator: Adobe Illustrator 18.1.1, SVG Export Plug-In . SVG Version: 6.00 Build 0)  -->
<svg version="1.1" xmlns="http://www.w3.org/2000/svg" xmlns:xlink="http://www.w3.org/1999/xlink" x="0px" y="0px"
	 viewBox="0 0 94.672 93.324" style="enable-background:new 0 0 94.672 93.324;" xml:space="preserve">
<g id="turf-buffer">
	<path id="polygon_x5F_main" d="M74.983,7.154c-10.307-3.127-19.952,8.872-24.429,16.416c-6.656,11.214-12.237,12.472-24.102,16.648
		C16.37,43.766,8.915,52.539,6.884,62.946c-1.943,9.957,7.773,18.656,16.494,21.489c11.262,3.659,15.865,3.748,22.77-6.427
		c6.093-8.98,9.013-19.878,17.835-26.756c9.91-7.726,19.068-9.077,23.202-22.242C90.229,19.322,84.886,10.158,74.983,7.154z"/>
	<path id="buffer" style="fill:none;stroke:#000000;stroke-miterlimit:10;stroke-dasharray:4;" d="M30.831,92.631
		c-3.075-0.401-6.311-1.369-9.349-2.356C9.378,86.341-1.645,74.604,0.858,61.771c2.464-12.62,11.489-23.097,23.556-27.344
		l2.46-0.859c9.996-3.473,13.363-4.644,18.401-13.132c3.894-6.561,14.477-21.621,28.598-19.781c0.971,0.127,1.945,0.337,2.893,0.624
		c6.583,1.997,11.848,6.202,14.826,11.841c2.838,5.374,3.354,11.67,1.45,17.731c-3.65,11.62-10.785,15.97-17.685,20.178
		c-2.487,1.515-5.059,3.083-7.601,5.065c-4.739,3.696-7.608,9.219-10.644,15.068c-1.766,3.4-3.592,6.916-5.883,10.293
		C46.75,88.057,41.177,93.979,30.831,92.631C30.83,92.631,30.831,92.631,30.831,92.631z"/>
</g>
<g id="Layer_1">
</g>
</svg>
