<?xml version="1.0" encoding="iso-8859-1"?>
<!-- Generator: Adobe Illustrator 18.1.1, SVG Export Plug-In . SVG Version: 6.00 Build 0)  -->
<svg version="1.1" xmlns="http://www.w3.org/2000/svg" xmlns:xlink="http://www.w3.org/1999/xlink" x="0px" y="0px"
	 viewBox="0 0 68.215 76.505" style="enable-background:new 0 0 68.215 76.505;" xml:space="preserve">
<g id="turf-simplify">
	<polygon id="simplified" points="22.042,2.347 16.42,2.6 10.483,20.912 3.341,23.313 1.497,40.731 8.263,43.839 0.808,63.593 
		21.132,53.669 27.407,36.853 41.52,37.605 48.622,72.519 62.694,75.352 63.696,3.494 22.042,2.347 	"/>
	<g id="original">
		<path style="fill:none;stroke:#FFFFFF;stroke-miterlimit:10;stroke-dasharray:4;" d="M10.483,20.912
			c3.862-2.238,3.038-4.812,3.055-8.873c0.001-0.177,0.002-0.368,0.005-0.567"/>
		<path style="fill:none;stroke:#FFFFFF;stroke-miterlimit:10;stroke-dasharray:4;" d="M4.135,54.775
			c2.751-3.016,5.619-6.218,4.127-10.937"/>
		<path style="fill:none;stroke:#FFFFFF;stroke-miterlimit:10;stroke-dasharray:2;" d="M8.263,43.839
			c-0.85-2.688-2.827-1.998-4.623-2.124"/>
		<path style="fill:none;stroke:#FFFFFF;stroke-miterlimit:10;stroke-dasharray:4;" d="M63.672,5.188
			c-0.272,0.873-0.814,1.778-1.219,2.438c-2.825,4.599-8.476,8.214-7.654,14.321c0.655,4.872,3.703,10.35,5.482,14.9
			c0.851,2.176,1.862,4.397,2.857,6.653"/>
		<path style="fill:none;stroke:#FFFFFF;stroke-miterlimit:10;stroke-dasharray:4;" d="M29.114,2.542
			c3.852,1.348,7.327,3.237,11.677,1.804c1.276-0.42,2.451-0.904,3.584-1.384"/>
		<path style="fill:none;stroke:#FFFFFF;stroke-miterlimit:10;stroke-dasharray:4;" d="M27.407,36.853
			c-5.003,3.849-5.784,11.071-6.274,16.816"/>
		<path style="fill:none;" d="M7.322,21.974c1.145-0.264,2.28-0.552,3.16-1.062L7.322,21.974z"/>
		<path style="fill:none;stroke:#FFFFFF;stroke-miterlimit:10;stroke-dasharray:4;" d="M46.812,63.622
			c-0.003-0.13-0.004-0.259-0.011-0.389c-0.084-1.627-0.504-2.874-0.815-4.516c-1.26-6.653,0.928-16.08-4.466-21.112"/>
		<path style="fill:none;stroke:#FFFFFF;stroke-miterlimit:10;stroke-dasharray:4;" d="M41.52,37.605
			c-3.714-3.464-10.04-3.886-14.114-0.752"/>
		<path style="fill:none;stroke:#000000;stroke-miterlimit:10;stroke-dasharray:4;" d="M62.694,75.352
			c5.713-2.385,5.123-12.114,4.874-17.037c-0.255-5.022-2.305-9.997-4.43-14.815"/>
		<path style="fill:none;stroke:#000000;stroke-miterlimit:10;stroke-dasharray:4;" d="M3.341,23.313
			c-1.409,0.991-1.358,2.304-1.709,4.046c-0.576,2.86-2.155,10.973-0.135,13.373"/>
		<path style="fill:none;stroke:#000000;stroke-miterlimit:10;stroke-dasharray:4;" d="M4.135,54.775
			c-0.44,0.482-0.876,0.959-1.292,1.437c-1.731,1.99-2.307,4.678-2.036,7.381"/>
		<path style="fill:none;stroke:#000000;stroke-miterlimit:10;stroke-dasharray:4;" d="M7.322,21.974
			c-1.492,0.344-2.999,0.647-3.981,1.338"/>
		<path style="fill:none;stroke:#000000;stroke-miterlimit:10;stroke-dasharray:4;" d="M0.808,63.593
			c5.001,2.594,9.648-0.979,14.167-2.624c5.165-1.88,5.707-2.015,6.157-7.3"/>
		<path style="fill:none;stroke:#000000;stroke-miterlimit:10;stroke-dasharray:4;" d="M48.622,72.519
			c3.398,2.644,9.971,4.545,14.072,2.833"/>
		<path style="fill:none;stroke:#000000;stroke-miterlimit:10;stroke-dasharray:4;" d="M46.812,63.622
			c0.076,3.385-1.045,6.676,1.81,8.897"/>
		<path style="fill:none;stroke:#000000;stroke-miterlimit:10;stroke-dasharray:4;" d="M1.497,40.731
			c0.606,0.72,1.357,0.929,2.142,0.984"/>
		<path style="fill:none;stroke:#000000;stroke-miterlimit:10;stroke-dasharray:4;" d="M63.672,5.188
			c0.19-0.612,0.252-1.209,0.024-1.694"/>
		<path style="fill:none;stroke:#000000;stroke-miterlimit:10;stroke-dasharray:4;" d="M16.42,2.6
			c-2.553,1.436-2.84,6.11-2.877,8.873"/>
		<path style="fill:none;stroke:#000000;stroke-miterlimit:10;stroke-dasharray:4;" d="M63.696,3.494
			c-0.921-1.955-6.378-2.585-8.417-2.86c-4.341-0.585-7.419,0.851-10.904,2.328"/>
		<path style="fill:none;stroke:#000000;stroke-miterlimit:10;stroke-dasharray:4;" d="M29.114,2.542
			c-0.167-0.059-0.334-0.118-0.503-0.174C26.998,1.831,21.132-1.153,16.42,2.6"/>
		<path style="fill:none;" d="M48.622,72.519"/>
	</g>
</g>
<g id="Layer_1">
</g>
</svg>
