<?xml version="1.0" encoding="iso-8859-1"?>
<!-- Generator: Adobe Illustrator 18.0.0, SVG Export Plug-In . SVG Version: 6.00 Build 0)  -->
<svg version="1.1" xmlns="http://www.w3.org/2000/svg" xmlns:xlink="http://www.w3.org/1999/xlink" x="0px" y="0px"
	 viewBox="0 0 100 100" style="enable-background:new 0 0 100 100;" xml:space="preserve">
<g id="turf-point-on-surface">
	<g>
		<g>
			<polyline style="fill:none;stroke:#000000;stroke-width:4;stroke-linecap:round;stroke-linejoin:round;" points="20,13 15,13 
				15,18 			"/>
			
				<line style="fill:none;stroke:#000000;stroke-width:4;stroke-linecap:round;stroke-linejoin:round;stroke-dasharray:10,10;" x1="15" y1="28" x2="15" y2="62"/>
			<polyline style="fill:none;stroke:#000000;stroke-width:4;stroke-linecap:round;stroke-linejoin:round;" points="15,67 15,72 
				19.176,74.749 			"/>
			
				<polyline style="fill:none;stroke:#000000;stroke-width:4;stroke-linecap:round;stroke-linejoin:round;stroke-dasharray:10.0134,10.0134;" points="
				27.543,80.256 40.822,89 80,89 			"/>
			<polyline style="fill:none;stroke:#000000;stroke-width:4;stroke-linecap:round;stroke-linejoin:round;" points="85,89 90,89 
				89.676,84.01 			"/>
			
				<line style="fill:none;stroke:#000000;stroke-width:4;stroke-linecap:round;stroke-linejoin:round;stroke-dasharray:8.1502,8.1502;" x1="89.149" y1="75.877" x2="88.357" y2="63.678"/>
			<polyline style="fill:none;stroke:#000000;stroke-width:4;stroke-linecap:round;stroke-linejoin:round;" points="88.093,59.611 
				87.77,54.622 82.932,53.358 			"/>
			
				<line style="fill:none;stroke:#000000;stroke-width:4;stroke-linecap:round;stroke-linejoin:round;stroke-dasharray:6.0086,6.0086;" x1="77.118" y1="51.84" x2="68.398" y2="49.562"/>
			<polyline style="fill:none;stroke:#000000;stroke-width:4;stroke-linecap:round;stroke-linejoin:round;" points="65.491,48.803 
				60.653,47.539 63.683,43.561 			"/>
			
				<line style="fill:none;stroke:#000000;stroke-width:4;stroke-linecap:round;stroke-linejoin:round;stroke-dasharray:11.1388,11.1388;" x1="70.432" y1="34.7" x2="80.556" y2="21.408"/>
			<polyline style="fill:none;stroke:#000000;stroke-width:4;stroke-linecap:round;stroke-linejoin:round;" points="83.951,16.978 
				86.96,13 82,13 			"/>
			
				<line style="fill:none;stroke:#000000;stroke-width:4;stroke-linecap:round;stroke-linejoin:round;stroke-dasharray:9,9;" x1="73" y1="13" x2="24" y2="13"/>
		</g>
	</g>
	<circle cx="68.331" cy="72.493" r="6.845"/>
</g>
<g id="Layer_1">
</g>
</svg>
