<?xml version="1.0" encoding="iso-8859-1"?>
<!-- Generator: Adobe Illustrator 18.0.0, SVG Export Plug-In . SVG Version: 6.00 Build 0)  -->
<svg version="1.1" xmlns="http://www.w3.org/2000/svg" xmlns:xlink="http://www.w3.org/1999/xlink" x="0px" y="0px"
	 viewBox="0 0 100 100" style="enable-background:new 0 0 100 100;" xml:space="preserve">
<g id="ui-earth-east">
	<path d="M28.318,65.346c2.655,0.033,1.624-7.137,1.341-8.254C27.799,57.198,24.527,65.299,28.318,65.346z"/>
	<path d="M74.711,59.541c-1.811-0.436-0.245-3.067-3.01-2.705c-2.578,0.338-7.65,3.054-8.904,5.394
		c-2.712,5.059-1.397,8.646,4.011,5.58c4.05-2.297,6.957,8.889,10.322,3.071c0.525-2.058,3.187-4.125,2.85-6.334
		c-0.517-3.392-3.647-4.616-2.488-8.638C75.638,55.898,76.715,60.023,74.711,59.541z"/>
	<path d="M63.168,52.315c1.017,0.064,3.235-5.074,2.429-5.985C63.963,44.482,56.613,51.902,63.168,52.315z"/>
	<path d="M72.874,49.449c-0.472,2.084,7.736,6.733,8.923,5.887C83.757,53.939,74.542,48.346,72.874,49.449
		C72.72,50.126,73.174,49.25,72.874,49.449z"/>
	<path d="M50,2.608c-25.796,0-47.334,21.538-47.334,47.334S24.204,97.276,50,97.276s47.334-21.538,47.334-47.334
		S75.796,2.608,50,2.608z M64.473,9.998c-6.438,2.787-11.366,2.75-18.306,3.24c-0.069,1.284-7.459,1.836-9.028,1.384
		c0.003-0.823,1.163-1.358,1.791-0.825c1.313-4.318-8.717-4.562-8.826,0.592c2.446-1.058,2.514-0.822,4.96-1.88
		c-1.628,1.443-3.261,3.307-5.152,4.415c-0.979,0.574-4.273-0.138-2.697-1.748c-1.51,0.849-3.131,1.324-4.862,1.425
		C34.319,6.661,51.117,3.902,65.63,9.536C64.689,9.943,65.63,9.536,64.473,9.998z M18.318,21.102
		c1.822,0.007,2.627,2.329,3.456,3.589c0,0,2.482,3.226,4.234,2.619c-0.221,3.41-4.523,5.02-6.929,2.593
		c-1.582-1.4-0.983-5.436-3.739-5.941c0.746-0.992,1.536-1.948,2.362-2.872C17.702,21.091,17.953,21.047,18.318,21.102z
		 M60.781,91.312c0.438-0.344,1.156-0.25,2.102-1.441c4.804-6.051-25.457-10.077-26.815,1.094
		C16.587,84.331,4.227,64.239,7.101,43.864c2.385,0.598,3.076,4.916,3.076,4.916c0.816,3.414,1.592,6.84,2.467,10.24
		c0.856,3.329,2.611,11.272,6.667,12.341c5.276,1.391,4.256-7.86,4.457-10.309c0.51-6.225,2.587-12.319,6.01-17.544
		c-6.785,2.402-5.676-6.089-6.063-10.391c1.337,3.038,3.755,4.989,3.958,8.301c2.073-0.295,5.007-0.681,5.075-3.582
		c0.053-2.304-2.257-1.988-2.711-4.108c0.242,1.129,5.955,2.062,7.031,2.691c1.983,1.159,5.149,11.907,7.525,8.16
		c1.045-1.648,2.879-8.792,5.836-4.977c1.673,2.158,2.528,8.669,5.467,8.554c-0.441,0.017-0.901-4.515-1.082-4.926
		c1.263,1.612,5.185,3.154,5.873-0.025c0.638-2.946-5.252-3.044,1.068-4.413c2.651-0.574,4.102-4.113,2.618-6.383
		c-2.823-4.317,1.297-5.376,1.9-1.394c2.607-0.613,1.437-8.43,0.465-10.275c-0.967-1.837,1.452-4.787,0.905-5.173
		c2.791,0.124,1.712,4.424,5.409,5.203c-1.114-2.898-1.945-5.904-2.485-8.962c34.858,18.875,26.893,72.736-11.95,80.605
		C58.776,91.996,59.456,91.938,60.781,91.312z"/>
</g>
<g id="Layer_1">
</g>
</svg>
