<?xml version="1.0" encoding="iso-8859-1"?>
<!-- Generator: Adobe Illustrator 18.0.0, SVG Export Plug-In . SVG Version: 6.00 Build 0)  -->
<svg version="1.1" xmlns="http://www.w3.org/2000/svg" xmlns:xlink="http://www.w3.org/1999/xlink" x="0px" y="0px"
	 viewBox="0 0 100 100" style="enable-background:new 0 0 100 100;" xml:space="preserve">
<g id="ui-earth-west">
	<path d="M54.669,11.225c3.192,0.481,5.876,7.443,10.041,6.125c-0.617-4.658-0.979-6.609-5.383-8.463
		C56.402,7.656,50.728,10.631,54.669,11.225z"/>
	<path d="M75.208,51.717c-2.941-0.631-3.575-4.187-6.105-5.514c-4.666-2.447-9.315-1.619-14.103-2.993
		c-3.185-0.914-2.316-2.1-3.193-4.304c-0.425-1.067-3.81,1.811-4.764-0.979c-0.705-2.063-0.005-3.793,2.115-4.133
		c4.188-0.672,2.951,0.731,5.451,1.814c2.237,0.969,1.202-3.815,1.774-4.554c2.466-3.181,4.932-5.413,8.337-7.397
		c-2.672-4.133-11.25-8.916-10.085-0.748c-14.711-5.843,3.82-5.51,2.805-7.404c-4.692-3.127-6.374-0.181-11.088-0.628
		c-3.847-0.365-4.896-3.109-7.795-3.999c-2.14-0.657-12.961,4.947-12.782,6.302c0.512,3.888,12.037-6.092,11.169,6.775
		c-0.281,4.168,0.529,12.397,4.264,13.965c2.614,2.353,8.96,4.557,7.973,4.166c7.817,3.095,7.885,4.001,7.101,11.213
		c-0.448,4.122,4.62,5.332,4.133,9.872c-0.261,2.436-5.276,13.767-2.947,15.308c0.521,0.345,12.239-12.609,14.063-14.451
		C75.042,60.483,84.018,53.607,75.208,51.717C74.084,51.476,76.944,52.089,75.208,51.717z"/>
	<path d="M50,2.608c-25.796,0-47.334,21.538-47.334,47.334S24.204,97.276,50,97.276s47.334-21.538,47.334-47.334
		S75.796,2.608,50,2.608z M64.429,89.851c-3.099,0.105-4.653,1.957-7.334,0.653c-4.43-2.155,0.857-6.765,3.143-7.594
		c-4.046-3.274-7.295,7.125-11.203,3.415c-0.091,2.119-6.783,0.722-7.479,6.118C14.579,87.093-0.9,56.924,10.601,31.904
		c5.425-11.802,16.146-20.773,28.742-23.97C45.9,6.269,52.844,6.17,59.446,7.648c3.995,0.894,7.856,2.364,11.438,4.345
		c2.326,1.286,2.756,6.956,5.824,6.451c0.097-0.384,0.193-0.768,0.29-1.151c2.004,0.403,3.707,2.018,4.216,3.999
		c-2.043,1.313,3.187,4.844,3.595,7.263c0.631,3.742-1.125,20.675,8.34,17.482c1.705,18.982-9.621,37.284-27.365,44.251
		C64.665,89.844,64.429,89.851,64.429,89.851z"/>
</g>
<g id="Layer_1">
</g>
</svg>
